<svg width="302" height="260" viewBox="0 0 302 260" fill="none" xmlns="http://www.w3.org/2000/svg">
<path d="M-7.71052 128.611C-7.71018 128.591 -7.69982 128.572 -7.68965 128.562L51.7449 84.331C51.7754 84.3015 51.8258 84.2824 51.8756 84.2933C51.9256 84.2941 51.9651 84.3248 51.9844 84.3651L58.3734 148.254C58.3928 148.294 58.3721 148.334 58.3318 148.353C58.2912 148.382 58.2411 148.391 58.1914 148.371L-7.63222 128.713C-7.67205 128.702 -7.70171 128.682 -7.7112 128.651C-7.71086 128.631 -7.71069 128.621 -7.71052 128.611ZM51.8103 84.6022L-7.3797 128.567L58.0359 148.108L51.8103 84.6022Z" fill="#8E95A2" fill-opacity="0.3"/>
<path d="M58.1132 148.269C58.1137 148.239 58.1444 148.2 58.1847 148.18C58.245 148.161 58.3148 148.173 58.3542 148.213L136.325 166.358C136.355 166.389 136.354 166.429 136.334 166.459C136.313 166.488 136.263 166.507 136.213 166.507L77.1975 189.721C77.1375 189.72 77.088 189.69 77.0786 189.659L58.1126 148.299C58.1128 148.289 58.113 148.279 58.1132 148.269ZM135.956 166.312L58.6532 148.858L77.3007 189.533L135.956 166.312Z" fill="#8E95A2" fill-opacity="0.3"/>
<path d="M-74.3783 262.491C-74.3774 262.441 -74.3268 262.402 -74.2566 262.394L31.3537 256.258C31.4037 256.258 31.4535 256.269 31.4828 256.31C31.5123 256.34 31.5015 256.39 31.471 256.42L7.84983 278.519C7.81932 278.549 7.75914 278.558 7.70915 278.557L-74.28 262.593C-74.3398 262.582 -74.3791 262.541 -74.3783 262.491ZM31.07 256.473L-73.4591 262.547L7.68274 278.346L31.07 256.473Z" fill="#8E95A2" fill-opacity="0.3"/>
<path d="M77.0791 189.629C77.0796 189.599 77.0899 189.579 77.1203 189.56C77.1406 189.54 77.1808 189.531 77.2108 189.532L136.226 166.317C136.266 166.317 136.306 166.328 136.325 166.358C136.345 166.379 136.365 166.409 136.354 166.439L77.658 275.712C77.6471 275.762 77.5866 275.791 77.5166 275.789C77.4467 275.788 77.3973 275.747 77.3984 275.687L77.0791 189.629ZM136.063 166.504L77.3375 189.724L77.6568 274.612L136.063 166.504Z" fill="#8E95A2" fill-opacity="0.3"/>
<path d="M31.232 256.356C31.2324 256.336 31.2425 256.326 31.2427 256.316L77.0898 189.59C77.1205 189.55 77.1808 189.531 77.2406 189.542C77.3004 189.553 77.3397 189.594 77.3391 189.634L77.6585 275.682C77.6578 275.722 77.6373 275.751 77.5972 275.761C77.5568 275.78 77.5068 275.779 77.4672 275.759L31.3006 256.437C31.2508 256.426 31.2315 256.386 31.232 256.356ZM77.0721 190.039L31.5327 256.321L77.3813 275.517L77.0721 190.039Z" fill="#8E95A2" fill-opacity="0.3"/>
<path d="M-7.71051 128.611C-7.71034 128.601 -7.71016 128.591 -7.69999 128.581L12.6458 89.2134C12.6563 89.1836 12.6966 89.1643 12.7368 89.155L51.8356 84.2925C51.8858 84.2833 51.9456 84.2944 51.9749 84.3349C52.0044 84.3654 52.0035 84.4154 51.973 84.4449L-7.4514 128.666C-7.47208 128.705 -7.51241 128.725 -7.5724 128.724C-7.65222 128.712 -7.71154 128.671 -7.71051 128.611ZM12.8639 89.3272L-7.05795 127.882L51.5514 84.5377L12.8639 89.3272Z" fill="#8E95A2" fill-opacity="0.3"/>
<path d="M-67.0665 44.1946L-67.0663 44.1846L-61.1641 12.5108C-61.1636 12.4808 -61.1331 12.4513 -61.1029 12.4419C-61.0728 12.4324 -61.0226 12.4232 -60.9928 12.4337L15.5368 33.5947C15.5966 33.6058 15.6357 33.6564 15.625 33.6963C15.6243 33.7363 15.5737 33.7754 15.5135 33.7844L-66.918 44.2871C-66.9582 44.2964 -66.998 44.2858 -67.0277 44.2653C-67.0573 44.2447 -67.067 44.2246 -67.0665 44.1946ZM-60.9267 12.6649L-66.7845 44.0794L14.9956 33.6555L-60.9267 12.6649Z" fill="#8E95A2" fill-opacity="0.3"/>
<path d="M-67.0665 44.1946C-67.0663 44.1846 -67.0663 44.1846 -67.0661 44.1746C-67.0554 44.1347 -67.0149 44.1054 -66.9648 44.0963L15.4767 33.5937C15.5167 33.5944 15.5568 33.5951 15.5864 33.6156C15.6161 33.6361 15.6355 33.6664 15.635 33.6964L12.8953 89.2477C12.8946 89.2877 12.8641 89.3172 12.8239 89.3265C12.7836 89.3458 12.7237 89.3348 12.6841 89.3141L-67.0177 44.2654C-67.0475 44.2549 -67.067 44.2246 -67.0665 44.1946ZM15.363 33.8118L-66.6176 44.2623L12.6385 89.0533L15.363 33.8118Z" fill="#8E95A2" fill-opacity="0.3"/>
<path d="M12.6253 89.2431L15.3652 33.6818C15.3661 33.6318 15.4168 33.5927 15.4868 33.5939C15.5468 33.5949 15.6162 33.6261 15.6256 33.6663L51.9848 84.345C52.0039 84.3954 51.9629 84.4547 51.8927 84.4635L12.8339 89.3267C12.8137 89.3363 12.7836 89.3458 12.7636 89.3455C12.6836 89.3441 12.6243 89.3031 12.6253 89.2431ZM15.5929 34.4058L12.8975 89.1177L51.6953 84.3101L15.5929 34.4058Z" fill="#8E95A2" fill-opacity="0.3"/>
<path d="M-67.0664 44.1946C-67.0659 44.1646 -67.0452 44.125 -67.0051 44.1156C-66.9647 44.0963 -66.9048 44.0973 -66.8551 44.1182L12.8366 89.1667C12.8763 89.1874 12.8958 89.2177 12.8853 89.2476C12.8847 89.2776 12.8542 89.307 12.8139 89.3264L-51.9991 114.692C-52.0392 114.702 -52.0794 114.711 -52.119 114.69C-52.1589 114.68 -52.1884 114.649 -52.1878 114.619L-67.0766 44.2044C-67.0666 44.2046 -67.0666 44.2046 -67.0664 44.1946ZM12.5155 89.2312L-66.7604 44.4299L-51.9453 114.473L12.5155 89.2312Z" fill="#8E95A2" fill-opacity="0.3"/>
<path d="M-52.1777 114.609C-52.177 114.569 -52.1465 114.54 -52.1061 114.521L12.6968 89.1543C12.7471 89.1351 12.8071 89.1362 12.8466 89.1669C12.8861 89.1975 12.9054 89.2379 12.8847 89.2775L-7.46106 128.646C-7.4714 128.665 -7.50171 128.685 -7.53205 128.704C-7.56222 128.714 -7.60221 128.713 -7.63204 128.703L-52.0992 114.701C-52.1491 114.69 -52.1784 114.649 -52.1777 114.609C-52.1779 114.619 -52.1777 114.609 -52.1777 114.609ZM12.5117 89.4512L-51.7374 114.597L-7.6581 128.472L12.5117 89.4512Z" fill="#8E95A2" fill-opacity="0.3"/>
<path d="M31.2321 256.355C31.2324 256.335 31.2427 256.316 31.2631 256.296C31.3038 256.257 31.3739 256.248 31.4335 256.269L77.6001 275.591C77.6299 275.601 77.6596 275.622 77.659 275.652C77.6685 275.682 77.6582 275.702 77.6477 275.732L68.528 286.167C68.5075 286.197 68.4673 286.206 68.4272 286.215C68.3872 286.215 68.3473 286.204 68.3177 286.184L31.2708 256.426C31.2412 256.406 31.2317 256.375 31.2321 256.355ZM77.3379 275.716L32.0254 256.749L68.3816 285.955L77.3379 275.716Z" fill="#8E95A2" fill-opacity="0.3"/>
<path d="M7.60091 278.455C7.60125 278.435 7.61159 278.415 7.63193 278.395L31.2531 256.296C31.2734 256.276 31.3137 256.257 31.3537 256.258C31.3937 256.258 31.4335 256.269 31.4532 256.289L68.5 286.047C68.5395 286.077 68.5487 286.128 68.5181 286.157C68.4875 286.197 68.4371 286.216 68.3773 286.205L7.70934 278.547C7.65952 278.536 7.61986 278.515 7.61037 278.485C7.61054 278.475 7.60074 278.465 7.60091 278.455ZM31.3694 256.508L7.98202 278.391L68.0513 285.969L31.3694 256.508Z" fill="#8E95A2" fill-opacity="0.3"/>
<path d="M1.92219 192.315C1.92253 192.295 1.93305 192.265 1.96338 192.246L58.1443 148.2C58.1749 148.17 58.225 148.161 58.2648 148.172C58.3147 148.183 58.3443 148.203 58.3638 148.233L77.3297 189.594C77.3492 189.624 77.3387 189.654 77.3182 189.683C77.2977 189.713 77.2575 189.722 77.2175 189.722L2.11062 192.409C2.09063 192.408 2.08046 192.418 2.06047 192.418C1.98048 192.416 1.92116 192.375 1.92219 192.315ZM58.1901 148.45L2.38419 192.203L77.0306 189.538L58.1901 148.45Z" fill="#8E95A2" fill-opacity="0.3"/>
<path d="M-58.316 159.511C-58.3153 159.471 -58.2848 159.441 -58.2445 159.422L-31.2474 149.292C-31.187 149.273 -31.1072 149.284 -31.0781 149.335L2.16319 192.259C2.1925 192.3 2.18163 192.35 2.14112 192.379C2.09062 192.408 2.03047 192.417 1.97099 192.386L-58.2672 159.582C-58.287 159.571 -58.3165 159.541 -58.316 159.511ZM-31.2312 149.512L-57.9262 159.528L1.63823 191.96L-31.2312 149.512Z" fill="#8E95A2" fill-opacity="0.3"/>
<path d="M-74.3783 262.492L-74.3781 262.482L-58.3158 159.501C-58.3153 159.471 -58.2746 159.432 -58.2344 159.422C-58.1943 159.413 -58.1443 159.414 -58.1046 159.435L2.13355 192.239C2.16337 192.249 2.18284 192.28 2.1825 192.3C2.18199 192.33 2.18165 192.35 2.15131 192.369L-74.1491 262.545C-74.1898 262.585 -74.25 262.594 -74.2996 262.573C-74.3496 262.572 -74.379 262.532 -74.3783 262.492ZM-58.0691 159.695L-74.0527 262.167L1.88188 192.335L-58.0691 159.695Z" fill="#8E95A2" fill-opacity="0.3"/>
<path d="M1.92218 192.315C1.92252 192.295 1.93288 192.275 1.94305 192.266C1.96339 192.246 2.0037 192.227 2.0437 192.227L77.1906 189.541C77.2406 189.542 77.2804 189.553 77.3099 189.583C77.3394 189.614 77.3387 189.654 77.3182 189.683L31.4711 256.41C31.4504 256.449 31.4001 256.468 31.3401 256.467C31.2901 256.466 31.2406 256.436 31.2213 256.395L1.93168 192.345C1.93185 192.335 1.92201 192.325 1.92218 192.315ZM76.9872 189.738L2.24061 192.411L31.3863 256.108L76.9872 189.738Z" fill="#8E95A2" fill-opacity="0.3"/>
<path d="M-74.3783 262.492C-74.3779 262.472 -74.3676 262.452 -74.3473 262.432L1.9532 192.256C1.98371 192.226 2.03388 192.217 2.08387 192.218C2.13369 192.229 2.17335 192.25 2.18284 192.28L31.4827 256.32C31.4922 256.35 31.4916 256.38 31.4713 256.4C31.451 256.419 31.4106 256.439 31.3706 256.438L-74.1997 262.575C-74.2197 262.574 -74.2298 262.584 -74.2498 262.584C-74.32 262.593 -74.3793 262.552 -74.3783 262.492ZM2.00875 192.517L-73.9463 262.379L31.1834 256.275L2.00875 192.517Z" fill="#8E95A2" fill-opacity="0.3"/>
<path d="M136.085 166.404C136.085 166.384 136.085 166.374 136.105 166.355C136.136 166.315 136.206 166.296 136.266 166.317L198.293 222.046C198.333 222.056 198.362 222.087 198.372 222.117C198.381 222.147 198.371 222.177 198.34 222.206L178.402 237.748C178.351 237.787 178.281 237.786 178.221 237.755L136.123 166.475C136.104 166.465 136.084 166.434 136.085 166.404ZM198.02 222.181L137.058 166.791L178.305 237.556L198.02 222.181Z" fill="#8E95A2" fill-opacity="0.3"/>
<path d="M77.3885 275.677C77.3885 275.677 77.3887 275.667 77.3889 275.657L136.085 166.384C136.095 166.354 136.126 166.325 136.166 166.316C136.206 166.306 136.256 166.307 136.296 166.328L178.384 237.608C178.424 237.628 178.443 237.659 178.433 237.688C178.432 237.718 178.402 237.748 178.361 237.767L77.5771 275.76C77.5268 275.779 77.4768 275.779 77.4373 275.748C77.4075 275.737 77.388 275.707 77.3885 275.677ZM136.302 166.588L77.7016 275.502L178.073 237.672L136.302 166.588Z" fill="#8E95A2" fill-opacity="0.3"/>
<path d="M-7.71052 128.611C-7.71001 128.581 -7.68948 128.552 -7.65914 128.532C-7.6188 128.513 -7.57864 128.504 -7.52899 128.524L58.2947 148.182C58.3543 148.203 58.3938 148.234 58.3729 148.284C58.3722 148.324 58.3216 148.363 58.2614 148.372L-4.44515 155.241C-4.48514 155.24 -4.51511 155.24 -4.54477 155.219C-4.57442 155.199 -4.59409 155.179 -4.59358 155.149L-7.72067 128.621C-7.7105 128.611 -7.71052 128.611 -7.71052 128.611ZM57.7439 148.223L-7.43295 128.756L-4.3414 155.023L57.7439 148.223Z" fill="#8E95A2" fill-opacity="0.3"/>
<path d="M-4.5934 155.138C-4.59254 155.088 -4.55185 155.049 -4.48169 155.04L58.2248 148.171C58.275 148.162 58.3347 148.183 58.364 148.223C58.3833 148.264 58.3826 148.304 58.3421 148.333L2.16115 192.379C2.12064 192.409 2.07046 192.418 2.02064 192.407C1.97082 192.396 1.94134 192.366 1.93203 192.325L-4.58356 155.149C-4.59356 155.148 -4.5934 155.138 -4.5934 155.138ZM57.8808 148.405L-4.31464 155.213L2.14609 192.089L57.8808 148.405Z" fill="#8E95A2" fill-opacity="0.3"/>
<path d="M-31.3189 149.381C-31.3186 149.361 -31.3082 149.341 -31.2879 149.321C-31.2574 149.292 -31.197 149.273 -31.1472 149.284L-4.42153 155.031C-4.37171 155.042 -4.33226 155.073 -4.32294 155.113L2.19268 192.29C2.20199 192.33 2.16115 192.379 2.10081 192.398C2.04065 192.407 1.98083 192.396 1.94152 192.356L-31.2997 149.431C-31.3096 149.421 -31.3193 149.401 -31.3189 149.381ZM-4.58476 155.219L-30.9117 149.548L1.84023 191.844L-4.58476 155.219Z" fill="#8E95A2" fill-opacity="0.3"/>
<path d="M268.393 294.044L288.923 238.037L282.181 294.28L282.44 294.284L289.311 236.943C289.322 236.893 289.273 236.853 289.203 236.841C289.133 236.83 289.073 236.859 289.052 236.909L268.113 294.039L268.393 294.044Z" fill="#8E95A2" fill-opacity="0.3"/>
<path d="M282.44 294.284L289.182 238.061L295.769 294.512L296.038 294.517L289.322 236.933C289.312 236.883 289.263 236.842 289.193 236.841C289.123 236.84 289.073 236.879 289.062 236.929L282.181 294.28L282.44 294.284Z" fill="#8E95A2" fill-opacity="0.3"/>
<path d="M296.038 294.517L294.39 280.396L296.118 294.518L296.388 294.523L289.322 236.933C289.312 236.883 289.253 236.842 289.183 236.841C289.113 236.84 289.062 236.889 289.061 236.939L289.061 236.949L295.779 294.512L296.038 294.517Z" fill="#8E95A2" fill-opacity="0.3"/>
<path d="M211.031 293.064L198.399 222.267L288.94 236.997L225.359 293.309L225.699 293.314L289.29 237.003C289.321 236.973 289.331 236.944 289.312 236.903C289.293 236.873 289.263 236.842 289.213 236.842L198.273 222.045C198.233 222.035 198.183 222.044 198.152 222.073C198.122 222.093 198.112 222.112 198.111 222.142L198.111 222.152L210.761 293.049L211.031 293.054L211.031 293.064Z" fill="#8E95A2" fill-opacity="0.3"/>
<path d="M207.121 292.997L178.462 237.719L198.147 222.363L210.761 293.059L211.031 293.064L198.381 222.137C198.372 222.097 198.342 222.066 198.293 222.056C198.243 222.045 198.193 222.054 198.152 222.083L178.214 237.625C178.193 237.644 178.173 237.664 178.172 237.694C178.172 237.704 178.172 237.714 178.182 237.734L206.831 293.002L207.121 293.007L207.121 292.997Z" fill="#8E95A2" fill-opacity="0.3"/>
<path d="M225.699 293.314L288.905 237.346L268.123 294.04L268.393 294.044L289.311 236.963C289.332 236.924 289.303 236.873 289.243 236.852C289.183 236.831 289.123 236.84 289.083 236.879L225.359 293.309L225.699 293.314Z" fill="#8E95A2" fill-opacity="0.3"/>
<path d="M155.269 292.111L77.879 275.656L178.24 237.825L206.842 292.992L207.121 292.997L178.433 237.658C178.413 237.638 178.394 237.608 178.354 237.597C178.314 237.586 178.284 237.586 178.244 237.605L77.4599 275.598C77.4196 275.618 77.3891 275.647 77.3885 275.677L77.3884 275.687C77.3877 275.727 77.4272 275.758 77.487 275.769L154.229 292.083L155.269 292.101L155.269 292.111Z" fill="#8E95A2" fill-opacity="0.3"/>
</svg>
