<svg width="24" height="24" viewBox="0 0 24 24" fill="none" xmlns="http://www.w3.org/2000/svg">
<path d="M8 5.75012C7.59 5.75012 7.25 5.41012 7.25 5.00012V2.00012C7.25 1.59012 7.59 1.25012 8 1.25012C8.41 1.25012 8.75 1.59012 8.75 2.00012V5.00012C8.75 5.41012 8.41 5.75012 8 5.75012Z" fill="#0057FF"/>
<path d="M16 5.75012C15.59 5.75012 15.25 5.41012 15.25 5.00012V2.00012C15.25 1.59012 15.59 1.25012 16 1.25012C16.41 1.25012 16.75 1.59012 16.75 2.00012V5.00012C16.75 5.41012 16.41 5.75012 16 5.75012Z" fill="#0057FF"/>
<path d="M8.5 14.4998C8.37 14.4998 8.24 14.4698 8.12 14.4198C7.99 14.3698 7.89 14.2998 7.79 14.2098C7.61 14.0198 7.5 13.7698 7.5 13.4998C7.5 13.3698 7.53 13.2398 7.58 13.1198C7.63 12.9998 7.7 12.8898 7.79 12.7898C7.89 12.6998 7.99 12.6298 8.12 12.5798C8.48 12.4298 8.93 12.5098 9.21 12.7898C9.39 12.9798 9.5 13.2398 9.5 13.4998C9.5 13.5598 9.49 13.6298 9.48 13.6998C9.47 13.7598 9.45 13.8198 9.42 13.8798C9.4 13.9398 9.37 13.9998 9.33 14.0598C9.3 14.1098 9.25 14.1598 9.21 14.2098C9.02 14.3898 8.76 14.4998 8.5 14.4998Z" fill="#0057FF"/>
<path d="M12 14.4999C11.87 14.4999 11.74 14.4699 11.62 14.4199C11.49 14.3699 11.39 14.2999 11.29 14.2099C11.11 14.0199 11 13.7699 11 13.4999C11 13.3699 11.03 13.2399 11.08 13.1199C11.13 12.9999 11.2 12.8899 11.29 12.7899C11.39 12.6999 11.49 12.6299 11.62 12.5799C11.98 12.4199 12.43 12.5099 12.71 12.7899C12.89 12.9799 13 13.2399 13 13.4999C13 13.5599 12.99 13.6299 12.98 13.6999C12.97 13.7599 12.95 13.8199 12.92 13.8799C12.9 13.9399 12.87 13.9999 12.83 14.0599C12.8 14.1099 12.75 14.1599 12.71 14.2099C12.52 14.3899 12.26 14.4999 12 14.4999Z" fill="#0057FF"/>
<path d="M15.5 14.4999C15.37 14.4999 15.24 14.4699 15.12 14.4199C14.99 14.3699 14.89 14.2999 14.79 14.2099C14.75 14.1599 14.71 14.1099 14.67 14.0599C14.63 13.9999 14.6 13.9399 14.58 13.8799C14.55 13.8199 14.53 13.7599 14.52 13.6999C14.51 13.6299 14.5 13.5599 14.5 13.4999C14.5 13.2399 14.61 12.9799 14.79 12.7899C14.89 12.6999 14.99 12.6299 15.12 12.5799C15.49 12.4199 15.93 12.5099 16.21 12.7899C16.39 12.9799 16.5 13.2399 16.5 13.4999C16.5 13.5599 16.49 13.6299 16.48 13.6999C16.47 13.7599 16.45 13.8199 16.42 13.8799C16.4 13.9399 16.37 13.9999 16.33 14.0599C16.3 14.1099 16.25 14.1599 16.21 14.2099C16.02 14.3899 15.76 14.4999 15.5 14.4999Z" fill="#0057FF"/>
<path d="M8.5 18.0003C8.37 18.0003 8.24 17.9703 8.12 17.9203C8 17.8703 7.89 17.8003 7.79 17.7103C7.61 17.5203 7.5 17.2603 7.5 17.0003C7.5 16.8703 7.53 16.7403 7.58 16.6203C7.63 16.4903 7.7 16.3803 7.79 16.2903C8.16 15.9203 8.84 15.9203 9.21 16.2903C9.39 16.4803 9.5 16.7403 9.5 17.0003C9.5 17.2603 9.39 17.5203 9.21 17.7103C9.02 17.8903 8.76 18.0003 8.5 18.0003Z" fill="#0057FF"/>
<path d="M12 18.0003C11.74 18.0003 11.48 17.8903 11.29 17.7103C11.11 17.5203 11 17.2603 11 17.0003C11 16.8703 11.03 16.7403 11.08 16.6203C11.13 16.4903 11.2 16.3803 11.29 16.2903C11.66 15.9203 12.34 15.9203 12.71 16.2903C12.8 16.3803 12.87 16.4903 12.92 16.6203C12.97 16.7403 13 16.8703 13 17.0003C13 17.2603 12.89 17.5203 12.71 17.7103C12.52 17.8903 12.26 18.0003 12 18.0003Z" fill="#0057FF"/>
<path d="M15.5 17.9999C15.24 17.9999 14.98 17.8899 14.79 17.7099C14.7 17.6199 14.63 17.5099 14.58 17.3799C14.53 17.2599 14.5 17.1299 14.5 16.9999C14.5 16.8699 14.53 16.7399 14.58 16.6199C14.63 16.4899 14.7 16.3799 14.79 16.2899C15.02 16.0599 15.37 15.9499 15.69 16.0199C15.76 16.0299 15.82 16.0499 15.88 16.0799C15.94 16.0999 16 16.1299 16.06 16.1699C16.11 16.1999 16.16 16.2499 16.21 16.2899C16.39 16.4799 16.5 16.7399 16.5 16.9999C16.5 17.2599 16.39 17.5199 16.21 17.7099C16.02 17.8899 15.76 17.9999 15.5 17.9999Z" fill="#0057FF"/>
<path d="M20.5 9.83997H3.5C3.09 9.83997 2.75 9.49997 2.75 9.08997C2.75 8.67997 3.09 8.33997 3.5 8.33997H20.5C20.91 8.33997 21.25 8.67997 21.25 9.08997C21.25 9.49997 20.91 9.83997 20.5 9.83997Z" fill="#0057FF"/>
<path d="M16 22.7501H8C4.35 22.7501 2.25 20.6501 2.25 17.0001V8.50012C2.25 4.85012 4.35 2.75012 8 2.75012H16C19.65 2.75012 21.75 4.85012 21.75 8.50012V17.0001C21.75 20.6501 19.65 22.7501 16 22.7501ZM8 4.25012C5.14 4.25012 3.75 5.64012 3.75 8.50012V17.0001C3.75 19.8601 5.14 21.2501 8 21.2501H16C18.86 21.2501 20.25 19.8601 20.25 17.0001V8.50012C20.25 5.64012 18.86 4.25012 16 4.25012H8Z" fill="#0057FF"/>
</svg>
