<svg width="25" height="24" viewBox="0 0 25 24" fill="none" xmlns="http://www.w3.org/2000/svg">
<path d="M17.7564 21.25H7.62822C3.93143 21.25 1.8045 19.15 1.8045 15.5V8.5C1.8045 4.85 3.93143 2.75 7.62822 2.75H17.7564C21.4532 2.75 23.5801 4.85 23.5801 8.5V15.5C23.5801 19.15 21.4532 21.25 17.7564 21.25ZM7.62822 4.25C4.73156 4.25 3.32374 5.64 3.32374 8.5V15.5C3.32374 18.36 4.73156 19.75 7.62822 19.75H17.7564C20.6531 19.75 22.0609 18.36 22.0609 15.5V8.5C22.0609 5.64 20.6531 4.25 17.7564 4.25H7.62822Z" fill="#0057FF"/>
<path d="M12.6921 12.87C11.8413 12.87 10.9804 12.61 10.3221 12.08L7.15193 9.57997C6.82783 9.31997 6.76706 8.84997 7.0304 8.52997C7.29373 8.20997 7.76976 8.14997 8.09386 8.40997L11.264 10.91C12.0337 11.52 13.3403 11.52 14.11 10.91L17.2801 8.40997C17.6042 8.14997 18.0904 8.19997 18.3436 8.52997C18.6069 8.84997 18.5563 9.32997 18.2221 9.57997L15.0519 12.08C14.4037 12.61 13.5428 12.87 12.6921 12.87Z" fill="#0057FF"/>
</svg>
