<svg width="24" height="25" viewBox="0 0 24 25" fill="none" xmlns="http://www.w3.org/2000/svg">
<g clip-path="url(#clip0_159_2905)">
<path d="M23.7135 12.7762C23.7135 11.9605 23.6474 11.1403 23.5063 10.3378H12.1875V14.9588H18.6692C18.4003 16.4492 17.536 17.7676 16.2705 18.6053V21.6037H20.1375C22.4083 19.5137 23.7135 16.4271 23.7135 12.7762Z" fill="#4285F4"/>
<path d="M12.1875 24.5008C15.424 24.5008 18.1533 23.4382 20.142 21.6039L16.275 18.6055C15.1991 19.3375 13.8102 19.752 12.1919 19.752C9.0613 19.752 6.40688 17.6399 5.45447 14.8003H1.46402V17.8912C3.50113 21.9434 7.65031 24.5008 12.1875 24.5008Z" fill="#34A853"/>
<path d="M5.45013 14.8004C4.94747 13.31 4.94747 11.6962 5.45013 10.2059V7.11493H1.46409C-0.237909 10.5057 -0.237909 14.5006 1.46409 17.8913L5.45013 14.8004Z" fill="#FBBC04"/>
<path d="M12.1875 5.24966C13.8983 5.2232 15.5518 5.86697 16.7909 7.04867L20.2169 3.62262C18.0475 1.5855 15.1682 0.465534 12.1875 0.500809C7.65031 0.500809 3.50113 3.05822 1.46402 7.11481L5.45006 10.2058C6.39806 7.36173 9.05689 5.24966 12.1875 5.24966Z" fill="#EA4335"/>
</g>
<defs>
<clipPath id="clip0_159_2905">
<rect width="24" height="24" fill="white" transform="translate(0 0.5)"/>
</clipPath>
</defs>
</svg>
