<svg width="370" height="201" viewBox="0 0 370 201" fill="none" xmlns="http://www.w3.org/2000/svg">
<path d="M331.449 49.0398C331.449 49.0598 331.44 49.0799 331.42 49.1001L308.382 70.4996C308.342 70.53 308.282 70.5406 308.232 70.531C308.182 70.5215 308.142 70.4819 308.141 70.4419L307.928 47.9429C307.927 47.9129 307.947 47.8927 307.967 47.8725C307.997 47.8523 308.027 47.842 308.067 47.8416L331.318 48.941C331.368 48.9405 331.409 48.9702 331.429 49C331.449 49.0098 331.449 49.0198 331.449 49.0398ZM308.399 70.1594L331.05 49.1236L308.189 48.0405L308.399 70.1594Z" fill="#8E95A2" fill-opacity="0.3"/>
<path d="M308.401 70.4293C308.401 70.4493 308.392 70.4694 308.382 70.4795L250.144 116.274C250.114 116.304 250.064 116.325 250.014 116.315C249.964 116.316 249.924 116.286 249.903 116.246L241.818 52.5503C241.798 52.5105 241.818 52.4703 241.858 52.45C241.897 52.4196 241.947 52.4091 241.997 52.4286L308.32 70.3301C308.36 70.3397 308.39 70.3594 308.401 70.3893C308.401 70.4093 308.401 70.4193 308.401 70.4293ZM250.071 116.005L308.072 70.4825L242.16 52.6871L250.071 116.005Z" fill="#8E95A2" fill-opacity="0.3"/>
<path d="M242.078 52.5278C242.079 52.5578 242.049 52.5981 242.009 52.6185C241.949 52.6391 241.879 52.6297 241.839 52.5901L163.413 36.5236C163.383 36.4939 163.382 36.4539 163.402 36.4237C163.422 36.3935 163.471 36.373 163.521 36.3725L221.899 11.5975C221.959 11.5969 222.009 11.6264 222.02 11.6563L242.078 52.4978C242.078 52.5078 242.078 52.5178 242.078 52.5278ZM163.783 36.5601L241.523 51.9531L221.801 11.7884L163.783 36.5601Z" fill="#8E95A2" fill-opacity="0.3"/>
<path d="M222.02 11.6864C222.02 11.7164 222.01 11.7365 221.98 11.7568C221.961 11.777 221.921 11.7874 221.891 11.7876L163.513 36.5627C163.473 36.5631 163.433 36.5535 163.413 36.5237C163.393 36.5039 163.372 36.474 163.382 36.4439L219.153 -74.3503C219.163 -74.4004 219.223 -74.4309 219.293 -74.4316C219.363 -74.4322 219.413 -74.3927 219.413 -74.3327L222.02 11.6864ZM163.671 36.3712L221.759 11.5989L219.184 -73.2505L163.671 36.3712Z" fill="#8E95A2" fill-opacity="0.3"/>
<path d="M266.077 -56.2348C266.077 -56.2148 266.068 -56.2047 266.068 -56.1947L222.01 11.7264C221.981 11.7667 221.921 11.7873 221.861 11.7779C221.801 11.7684 221.76 11.7288 221.76 11.6888L219.154 -74.3203C219.153 -74.3603 219.173 -74.3905 219.213 -74.4009C219.253 -74.4213 219.303 -74.4217 219.343 -74.4021L266.007 -56.3141C266.057 -56.3046 266.077 -56.2648 266.077 -56.2348ZM222.016 11.2764L265.778 -56.1919L219.435 -74.163L222.016 11.2764Z" fill="#8E95A2" fill-opacity="0.3"/>
<path d="M385.373 2.84594L385.37 2.45596L358.223 37.7551L371.469 -65.0152L384.781 -59.5312L384.779 -59.7612L371.416 -65.2647C371.376 -65.2843 371.326 -65.2838 371.286 -65.2635C371.246 -65.2531 371.227 -65.2229 371.217 -65.1828L357.897 38.1883C357.878 38.2384 357.928 38.278 357.988 38.2874C358.049 38.3068 358.118 38.2862 358.148 38.2459L385.373 2.84594Z" fill="#8E95A2" fill-opacity="0.3"/>
<path d="M387.081 182.798L365.03 184.927L386.82 155.309L386.816 154.909L364.671 185.001C364.641 185.031 364.652 185.071 364.682 185.1C364.712 185.13 364.752 185.15 364.812 185.139L387.093 182.988L387.091 182.798L387.081 182.798Z" fill="#8E95A2" fill-opacity="0.3"/>
<path d="M386.82 155.309L386.816 154.909L364.997 184.557L369.97 153.309L386.77 150.039L386.768 149.839L369.819 153.14C369.769 153.151 369.729 153.181 369.719 153.221L364.661 185.041C364.642 185.091 364.692 185.13 364.752 185.14C364.812 185.149 364.882 185.139 364.912 185.098L386.82 155.309Z" fill="#8E95A2" fill-opacity="0.3"/>
<path d="M308.401 70.4294C308.401 70.4394 308.401 70.4494 308.391 70.4595L289.099 110.354C289.089 110.384 289.05 110.405 289.01 110.415L250.054 116.315C250.004 116.326 249.944 116.316 249.914 116.276C249.883 116.247 249.883 116.197 249.912 116.166L308.141 70.3819C308.16 70.3417 308.2 70.3213 308.26 70.3207C308.34 70.33 308.401 70.3694 308.401 70.4294ZM288.878 110.246L307.768 71.1754L250.332 116.062L288.878 110.246Z" fill="#8E95A2" fill-opacity="0.3"/>
<path d="M369.98 153.239L369.98 153.249L364.921 185.068C364.922 185.098 364.892 185.129 364.862 185.139C364.832 185.149 364.782 185.16 364.752 185.15L287.687 166.03C287.627 166.021 287.587 165.971 287.596 165.931C287.596 165.891 287.646 165.851 287.706 165.84L369.829 153.15C369.869 153.14 369.909 153.15 369.939 153.169C369.969 153.189 369.979 153.209 369.98 153.239ZM364.68 184.921L369.701 153.361L288.227 165.955L364.68 184.921Z" fill="#8E95A2" fill-opacity="0.3"/>
<path d="M369.98 153.239C369.98 153.249 369.98 153.249 369.98 153.259C369.97 153.299 369.931 153.329 369.881 153.34L287.747 166.03C287.707 166.03 287.667 166.03 287.637 166.011C287.607 165.991 287.587 165.961 287.586 165.931L288.849 110.327C288.848 110.287 288.878 110.256 288.918 110.246C288.958 110.226 289.018 110.235 289.058 110.255L369.929 153.169C369.959 153.179 369.979 153.209 369.98 153.239ZM287.855 165.809L369.529 153.183L289.111 110.514L287.855 165.809Z" fill="#8E95A2" fill-opacity="0.3"/>
<path d="M289.119 110.324L287.856 165.939C287.857 165.989 287.807 166.029 287.737 166.03C287.677 166.03 287.607 166.001 287.597 165.961L249.903 116.267C249.883 116.217 249.922 116.156 249.992 116.146L288.908 110.246C288.928 110.236 288.958 110.226 288.978 110.225C289.058 110.225 289.118 110.264 289.119 110.324ZM287.61 165.221L288.85 110.457L250.194 116.294L287.61 165.221Z" fill="#8E95A2" fill-opacity="0.3"/>
<path d="M385.77 44.654L358.227 38.135L385.373 2.83584L385.369 2.44586L357.917 38.138C357.897 38.1681 357.897 38.1881 357.908 38.2181C357.928 38.2479 357.948 38.2677 357.988 38.2773L385.772 44.8539L385.77 44.654Z" fill="#8E95A2" fill-opacity="0.3"/>
<path d="M386.016 70.5229L358.339 38.364L385.772 44.854L385.77 44.644L358.076 38.0865C358.026 38.077 357.966 38.0876 357.927 38.1179C357.897 38.1482 357.888 38.1983 357.918 38.228L386.019 70.8829L386.016 70.5229Z" fill="#8E95A2" fill-opacity="0.3"/>
<path d="M353.225 83.2446C353.225 83.2646 353.215 83.2947 353.185 83.3149C353.146 83.3453 353.086 83.3559 353.036 83.3364L308.212 70.5211C308.172 70.5115 308.142 70.4818 308.131 70.4519C308.121 70.422 308.131 70.3919 308.16 70.3616L331.198 48.962C331.228 48.9318 331.268 48.9214 331.318 48.9209C331.358 48.9205 331.398 48.9501 331.419 48.9799L353.204 83.1848C353.224 83.2146 353.225 83.2346 353.225 83.2446ZM308.491 70.3885L352.843 83.0682L331.291 49.2212L308.491 70.3885Z" fill="#8E95A2" fill-opacity="0.3"/>
<path d="M358.167 38.1957L353.235 83.2545C353.225 83.2946 353.186 83.335 353.126 83.3456C353.066 83.3561 353.006 83.3367 352.985 83.2969L331.21 49.092C331.179 49.0423 331.209 48.992 331.268 48.9614L357.957 38.1277C357.977 38.1075 358.017 38.0971 358.047 38.0968C358.107 38.0963 358.147 38.1459 358.167 38.1957ZM353.001 82.8767L357.879 38.3684L331.49 49.0793L353.001 82.8767Z" fill="#8E95A2" fill-opacity="0.3"/>
<path d="M386.768 149.839L369.959 153.119L353.422 84.0628L386.688 141.41L386.683 140.91L353.214 83.2047C353.184 83.155 353.124 83.1356 353.054 83.1463C352.994 83.1568 352.954 83.2072 352.965 83.2571L369.72 153.251C369.73 153.281 369.75 153.301 369.78 153.311C369.811 153.33 369.851 153.33 369.88 153.32L386.77 150.029L386.768 149.839Z" fill="#8E95A2" fill-opacity="0.3"/>
<path d="M369.98 153.239C369.98 153.269 369.96 153.309 369.92 153.319C369.881 153.34 369.821 153.34 369.77 153.321L288.91 110.406C288.869 110.387 288.849 110.357 288.859 110.327C288.859 110.297 288.888 110.266 288.928 110.246L353.044 83.1663C353.084 83.156 353.124 83.1456 353.164 83.1652C353.204 83.1748 353.234 83.2045 353.235 83.2345L369.99 153.229C369.98 153.229 369.98 153.229 369.98 153.239ZM289.229 110.333L369.667 153.012L352.996 83.3868L289.229 110.333Z" fill="#8E95A2" fill-opacity="0.3"/>
<path d="M386.683 140.91L353.285 83.324L386.114 80.9024L386.112 80.7024L353.084 83.1459C353.044 83.1463 353.004 83.1667 352.984 83.1969C352.965 83.2271 352.955 83.2572 352.975 83.287L386.688 141.42L386.683 140.91Z" fill="#8E95A2" fill-opacity="0.3"/>
<path d="M353.225 83.2447C353.225 83.2847 353.195 83.3149 353.156 83.3353L289.05 110.415C289 110.435 288.94 110.436 288.9 110.406C288.859 110.377 288.839 110.337 288.859 110.297L308.151 70.4018C308.161 70.3817 308.19 70.3614 308.22 70.3411C308.25 70.3308 308.29 70.3305 308.32 70.3402L353.144 83.1554C353.194 83.165 353.224 83.2047 353.225 83.2447C353.225 83.2347 353.225 83.2447 353.225 83.2447ZM289.227 110.113L352.785 83.2688L308.352 70.5699L289.227 110.113Z" fill="#8E95A2" fill-opacity="0.3"/>
<path d="M386.112 80.7024L353.244 83.1344L358.13 38.496L386.019 70.9028L386.016 70.5328L358.147 38.1458C358.117 38.1061 358.057 38.0967 358.007 38.1072C357.957 38.1176 357.907 38.1481 357.908 38.1981L352.975 83.2469C352.975 83.2769 352.985 83.3068 353.016 83.3265C353.046 83.3463 353.086 83.3559 353.126 83.3555L386.134 80.9122L386.132 80.7022L386.112 80.7024Z" fill="#8E95A2" fill-opacity="0.3"/>
<path d="M297.079 7.00399C297.079 7.02399 297.069 7.05407 297.039 7.07436L242.049 52.5982C242.019 52.6285 241.969 52.639 241.929 52.6293C241.879 52.6198 241.849 52.6001 241.829 52.5703L221.77 11.7288C221.75 11.699 221.76 11.6689 221.779 11.6387C221.799 11.6085 221.839 11.5981 221.879 11.5978L296.888 6.91579C296.908 6.9156 296.918 6.90551 296.938 6.90532C297.018 6.90456 297.078 6.94399 297.079 7.00399ZM241.997 52.3487L296.62 7.12835L222.071 11.776L241.997 52.3487Z" fill="#8E95A2" fill-opacity="0.3"/>
<path d="M358.167 38.1958C358.168 38.2358 358.138 38.2661 358.098 38.2864L331.38 49.1305C331.32 49.151 331.24 49.1418 331.21 49.0921L296.839 7.06632C296.809 7.02661 296.819 6.97651 296.858 6.94613C296.908 6.91566 296.968 6.90509 297.028 6.93452L358.117 38.1263C358.137 38.1361 358.167 38.1658 358.167 38.1958ZM331.358 48.9107L357.777 38.1895L297.372 7.35128L331.358 48.9107Z" fill="#8E95A2" fill-opacity="0.3"/>
<path d="M371.487 -65.1753L371.487 -65.1653L358.168 38.2057C358.168 38.2357 358.128 38.2761 358.088 38.2865C358.048 38.2969 357.998 38.2973 357.958 38.2777L296.87 7.08598C296.839 7.07626 296.819 7.04644 296.819 7.02644C296.819 6.99644 296.818 6.97645 296.848 6.95617L371.257 -65.2231C371.296 -65.2635 371.356 -65.2741 371.406 -65.2546C371.456 -65.255 371.487 -65.2153 371.487 -65.1753ZM357.916 38.0181L371.17 -64.8423L297.119 6.9836L357.916 38.0181Z" fill="#8E95A2" fill-opacity="0.3"/>
<path d="M297.079 7.00396C297.079 7.02396 297.069 7.04404 297.059 7.05413C297.039 7.07432 297 7.09471 296.96 7.09509L221.911 11.7774C221.861 11.7779 221.821 11.7683 221.79 11.7386C221.76 11.7089 221.76 11.6689 221.779 11.6387L265.837 -56.2824C265.856 -56.3226 265.906 -56.3431 265.966 -56.3437C266.016 -56.3441 266.067 -56.3146 266.087 -56.2748L297.068 6.97406C297.069 6.98406 297.079 6.99396 297.079 7.00396ZM222.109 11.5756L296.758 6.91699L265.93 -55.9833L222.109 11.5756Z" fill="#8E95A2" fill-opacity="0.3"/>
<path d="M371.487 -65.1754C371.487 -65.1554 371.478 -65.1353 371.458 -65.1152L297.049 7.06417C297.02 7.09445 296.97 7.10492 296.92 7.10539C296.87 7.09587 296.829 7.07625 296.819 7.04635L265.828 -56.1924C265.817 -56.2223 265.817 -56.2523 265.837 -56.2725C265.857 -56.2927 265.897 -56.3131 265.937 -56.3135L371.306 -65.2537C371.326 -65.2539 371.336 -65.264 371.356 -65.2642C371.426 -65.2749 371.487 -65.2354 371.487 -65.1754ZM296.987 6.80474L371.058 -65.0513L266.128 -56.1553L296.987 6.80474Z" fill="#8E95A2" fill-opacity="0.3"/>
<path d="M163.652 36.4713C163.653 36.4913 163.653 36.5013 163.633 36.5215C163.603 36.5618 163.533 36.5825 163.473 36.563L99.9874 -17.497C99.9473 -17.5066 99.917 -17.5363 99.9067 -17.5662C99.8965 -17.5961 99.9062 -17.6262 99.9359 -17.6565L119.454 -33.7224C119.504 -33.7629 119.574 -33.7636 119.634 -33.7341L163.612 36.4017C163.632 36.4115 163.652 36.4413 163.652 36.4713ZM100.256 -17.6395L162.669 36.1106L119.556 -33.5334L100.256 -17.6395Z" fill="#8E95A2" fill-opacity="0.3"/>
<path d="M219.424 -74.3228C219.424 -74.3228 219.424 -74.3128 219.424 -74.3028L163.653 36.4914C163.643 36.5215 163.613 36.5518 163.573 36.5621C163.533 36.5725 163.483 36.573 163.443 36.5534L119.476 -33.5826C119.435 -33.6022 119.415 -33.632 119.425 -33.6621C119.425 -33.6921 119.454 -33.7224 119.494 -33.7427L219.233 -74.401C219.283 -74.4215 219.333 -74.422 219.373 -74.3923C219.403 -74.3826 219.423 -74.3528 219.424 -74.3228ZM163.431 36.2935L219.115 -74.1399L119.785 -33.6555L163.431 36.2935Z" fill="#8E95A2" fill-opacity="0.3"/>
<path d="M308.401 70.4293C308.401 70.4593 308.382 70.4895 308.352 70.5098C308.312 70.5301 308.272 70.5405 308.222 70.521L241.899 52.6195C241.839 52.6001 241.799 52.5705 241.818 52.5203C241.818 52.4803 241.867 52.4398 241.927 52.4292L304.429 43.8958C304.469 43.8954 304.499 43.8951 304.529 43.9148C304.56 43.9345 304.58 43.9543 304.58 43.9843L308.411 70.4192C308.401 70.4293 308.401 70.4293 308.401 70.4293ZM242.449 52.5643L308.12 70.292L304.331 44.1167L242.449 52.5643Z" fill="#8E95A2" fill-opacity="0.3"/>
<path d="M308.188 47.9304L308.401 70.4294C308.402 70.4794 308.352 70.5198 308.282 70.5305C308.212 70.5312 308.152 70.4917 308.141 70.4418L304.31 44.007C304.31 43.957 304.339 43.9167 304.399 43.9062C304.459 43.8856 304.519 43.905 304.55 43.9447L308.157 47.8807C308.187 47.9004 308.187 47.9104 308.188 47.9304ZM308.123 68.4719L307.928 47.9629L304.634 44.3739L308.123 68.4719Z" fill="#8E95A2" fill-opacity="0.3"/>
<path d="M304.58 43.9944C304.581 44.0444 304.541 44.0848 304.471 44.0955L241.969 52.6289C241.919 52.6394 241.859 52.62 241.829 52.5803C241.808 52.5405 241.808 52.5005 241.848 52.4701L296.838 6.94622C296.878 6.91584 296.928 6.90537 296.978 6.9149C297.028 6.92442 297.058 6.95414 297.069 6.99404L304.57 43.9845C304.58 43.9844 304.58 43.9944 304.58 43.9944ZM242.307 52.3857L304.299 43.9271L296.861 7.23603L242.307 52.3857Z" fill="#8E95A2" fill-opacity="0.3"/>
<path d="M331.449 49.0397C331.449 49.0497 331.449 49.0497 331.449 49.0597C331.44 49.1098 331.38 49.1404 331.31 49.141L308.059 48.0416C308.019 48.042 307.978 48.0224 307.958 48.0026L304.351 44.0666C304.32 44.0369 304.32 43.9869 304.35 43.9566C304.379 43.9264 304.439 43.9058 304.489 43.9153L331.358 48.9606C331.408 48.9501 331.449 48.9897 331.449 49.0397ZM308.137 47.8409L329.898 48.8744L304.752 44.1628L308.137 47.8409Z" fill="#8E95A2" fill-opacity="0.3"/>
<path d="M331.449 49.0398C331.449 49.0598 331.44 49.0799 331.42 49.1001C331.39 49.1303 331.33 49.1509 331.28 49.1414L304.411 44.1061C304.361 44.0966 304.321 44.067 304.31 44.0271L296.809 7.03659C296.799 6.99668 296.838 6.94631 296.898 6.92574C296.958 6.91517 297.018 6.92459 297.058 6.96421L331.429 48.99C331.439 48.9999 331.449 49.0198 331.449 49.0398ZM304.569 43.9146L331.038 48.8837L297.173 7.47315L304.569 43.9146Z" fill="#8E95A2" fill-opacity="0.3"/>
<path d="M387.098 184.598L367.22 184.916L387.083 182.998L387.081 182.798L364.77 184.95C364.7 184.95 364.651 184.991 364.651 185.051C364.662 185.101 364.712 185.14 364.782 185.14L387.09 184.788L387.088 184.598L387.098 184.598Z" fill="#8E95A2" fill-opacity="0.3"/>
<path d="M339.886 197.296L387.188 194.107L387.186 193.917L340.384 197.072" fill="#8E95A2" fill-opacity="0.3"/>
<path d="M340.384 197.072L364.832 185.149L387.1 184.798L387.098 184.598L364.79 184.949C364.77 184.95 364.74 184.96 364.721 184.97L339.805 197.117" fill="#8E95A2" fill-opacity="0.3"/>
</svg>
