<svg width="24" height="25" viewBox="0 0 24 25" fill="none" xmlns="http://www.w3.org/2000/svg">
<path d="M12 19.25C11.59 19.25 11.25 18.91 11.25 18.5V15.5C11.25 15.09 11.59 14.75 12 14.75C12.41 14.75 12.75 15.09 12.75 15.5V18.5C12.75 18.91 12.41 19.25 12 19.25Z" fill="#292D32"/>
<path d="M17.6 23.0599H6.39999C4.57999 23.0599 2.91999 21.6599 2.61999 19.8699L1.28999 11.8999C1.06999 10.6599 1.67999 9.06994 2.66999 8.27994L9.59999 2.72994C10.94 1.64994 13.05 1.65994 14.4 2.73994L21.33 8.27994C22.31 9.06994 22.91 10.6599 22.71 11.8999L21.38 19.8599C21.08 21.6299 19.38 23.0599 17.6 23.0599ZM11.99 3.42994C11.46 3.42994 10.93 3.58994 10.54 3.89994L3.60999 9.45994C3.04999 9.90994 2.64999 10.9499 2.76999 11.6599L4.09999 19.6199C4.27999 20.6699 5.32999 21.5599 6.39999 21.5599H17.6C18.67 21.5599 19.72 20.6699 19.9 19.6099L21.23 11.6499C21.34 10.9499 20.94 9.88994 20.39 9.44994L13.46 3.90994C13.06 3.58994 12.52 3.42994 11.99 3.42994Z" fill="#292D32"/>
</svg>
