<svg width="25" height="24" viewBox="0 0 25 24" fill="none" xmlns="http://www.w3.org/2000/svg">
<path opacity="0.4" d="M21.12 8.7C20.08 4.07 16.04 2 12.5 2C12.5 2 12.5 2 12.49 2C8.95999 2 4.92999 4.07 3.87999 8.69C2.69999 13.85 5.85999 18.22 8.71999 20.98C9.77999 22 11.14 22.51 12.5 22.51C13.86 22.51 15.22 22 16.27 20.98C19.13 18.22 22.29 13.86 21.12 8.7Z" fill="#0057FF"/>
<path d="M15.25 11.75H9.75C9.34 11.75 9 11.41 9 11C9 10.59 9.34 10.25 9.75 10.25H15.25C15.66 10.25 16 10.59 16 11C16 11.41 15.66 11.75 15.25 11.75Z" fill="#0057FF"/>
</svg>
