<svg width="20" height="21" viewBox="0 0 20 21" fill="none" xmlns="http://www.w3.org/2000/svg">
<path d="M9.99999 19.4582C5.05832 19.4582 1.04166 15.4415 1.04166 10.4998C1.04166 5.55817 5.05832 1.5415 9.99999 1.5415C14.9417 1.5415 18.9583 5.55817 18.9583 10.4998C18.9583 15.4415 14.9417 19.4582 9.99999 19.4582ZM9.99999 2.7915C5.74999 2.7915 2.29166 6.24984 2.29166 10.4998C2.29166 14.7498 5.74999 18.2082 9.99999 18.2082C14.25 18.2082 17.7083 14.7498 17.7083 10.4998C17.7083 6.24984 14.25 2.7915 9.99999 2.7915Z" fill="#001A33"/>
<path d="M10 11.9582C9.65833 11.9582 9.375 11.6748 9.375 11.3332V7.1665C9.375 6.82484 9.65833 6.5415 10 6.5415C10.3417 6.5415 10.625 6.82484 10.625 7.1665V11.3332C10.625 11.6748 10.3417 11.9582 10 11.9582Z" fill="#001A33"/>
<path d="M9.99999 14.6669C9.89166 14.6669 9.78332 14.6419 9.68332 14.6002C9.58332 14.5586 9.49166 14.5002 9.40832 14.4252C9.33332 14.3419 9.27499 14.2586 9.23332 14.1502C9.19166 14.0502 9.16666 13.9419 9.16666 13.8336C9.16666 13.7252 9.19166 13.6169 9.23332 13.5169C9.27499 13.4169 9.33332 13.3252 9.40832 13.2419C9.49166 13.1669 9.58332 13.1086 9.68332 13.0669C9.88332 12.9836 10.1167 12.9836 10.3167 13.0669C10.4167 13.1086 10.5083 13.1669 10.5917 13.2419C10.6667 13.3252 10.725 13.4169 10.7667 13.5169C10.8083 13.6169 10.8333 13.7252 10.8333 13.8336C10.8333 13.9419 10.8083 14.0502 10.7667 14.1502C10.725 14.2586 10.6667 14.3419 10.5917 14.4252C10.5083 14.5002 10.4167 14.5586 10.3167 14.6002C10.2167 14.6419 10.1083 14.6669 9.99999 14.6669Z" fill="#001A33"/>
</svg>
