<svg width="20" height="21" viewBox="0 0 20 21" fill="none" xmlns="http://www.w3.org/2000/svg">
<path d="M6.66666 19.0998C6.43332 19.0998 6.19164 19.0415 5.97498 18.9249C5.49998 18.6749 5.20832 18.1748 5.20832 17.6415V16.4582C2.69166 16.1999 1.04166 14.3498 1.04166 11.6998V6.69987C1.04166 3.8332 2.96666 1.9082 5.83332 1.9082H14.1667C17.0333 1.9082 18.9583 3.8332 18.9583 6.69987V11.6998C18.9583 14.5665 17.0333 16.4915 14.1667 16.4915H11.025L7.47497 18.8582C7.2333 19.0166 6.94999 19.0998 6.66666 19.0998ZM5.83332 3.14986C3.68332 3.14986 2.29166 4.54153 2.29166 6.69153V11.6916C2.29166 13.8416 3.68332 15.2332 5.83332 15.2332C6.17499 15.2332 6.45832 15.5166 6.45832 15.8582V17.6332C6.45832 17.7416 6.52499 17.7916 6.56666 17.8166C6.60833 17.8416 6.69167 17.8666 6.78334 17.8082L10.4917 15.3416C10.5917 15.2749 10.7167 15.2332 10.8417 15.2332H14.175C16.325 15.2332 17.7167 13.8416 17.7167 11.6916V6.69153C17.7167 4.54153 16.325 3.14986 14.175 3.14986H5.83332Z" fill="#001A33"/>
<path d="M9.99986 10.5918C9.65819 10.5918 9.37486 10.3085 9.37486 9.9668V9.79183C9.37486 8.82516 10.0832 8.35015 10.3498 8.16682C10.6582 7.95849 10.7582 7.81683 10.7582 7.60016C10.7582 7.18349 10.4165 6.8418 9.99986 6.8418C9.58319 6.8418 9.24155 7.18349 9.24155 7.60016C9.24155 7.94183 8.95821 8.22516 8.61655 8.22516C8.27488 8.22516 7.99155 7.94183 7.99155 7.60016C7.99155 6.49183 8.89152 5.5918 9.99986 5.5918C11.1082 5.5918 12.0082 6.49183 12.0082 7.60016C12.0082 8.55016 11.3082 9.02514 11.0499 9.20014C10.7249 9.41681 10.6249 9.5585 10.6249 9.79183V9.9668C10.6249 10.3168 10.3415 10.5918 9.99986 10.5918Z" fill="#001A33"/>
<path d="M10 12.667C9.65 12.667 9.375 12.3837 9.375 12.042C9.375 11.7003 9.65833 11.417 10 11.417C10.3417 11.417 10.625 11.7003 10.625 12.042C10.625 12.3837 10.35 12.667 10 12.667Z" fill="#001A33"/>
</svg>
