<svg width="32" height="32" viewBox="0 0 32 32" fill="none" xmlns="http://www.w3.org/2000/svg">
<path d="M4.84463 32C4.62391 31.6854 4.27301 31.5514 3.97305 31.3534C2.84679 30.596 1.70354 29.8562 0.498046 29.0639C4.18812 26.8269 7.81027 24.6306 11.5683 22.347C11.3306 23.2558 11.1325 24.0131 10.9004 24.8811C12.3889 23.8733 13.8038 22.9703 15.1508 21.9683C15.762 21.5139 16.1752 21.5256 16.7808 21.9683C18.1504 22.9703 19.5879 23.8733 21.0764 24.8695C20.8557 23.9956 20.6519 23.2034 20.4256 22.312C24.0873 24.5724 27.6642 26.7861 31.2467 28.994C31.2411 29.1979 31.0656 29.2095 30.9581 29.2678C29.4753 30.0834 27.9811 30.8757 26.4983 31.7029C26.2097 31.866 26.0116 31.8427 25.7456 31.6679C22.6271 29.6872 19.4974 27.724 16.3733 25.7491C16.1356 25.5977 15.9488 25.5278 15.6658 25.6967C12.1908 27.759 8.70449 29.8096 5.21817 31.866C5.16157 31.901 5.11063 31.9534 5.05404 31.9942C4.98612 32 4.91821 32 4.84463 32ZM16.86 0C18.4617 0.617513 20.0633 1.24085 21.6763 1.83506C22.0272 1.96323 22.1517 2.12052 22.1517 2.51666C22.1348 6.48971 22.1348 10.4628 22.1517 14.4358C22.1517 14.8436 22.0725 14.9893 21.6424 14.9776C20.6067 14.9427 19.571 14.9543 18.5352 14.9776C18.2353 14.9834 18.1108 14.8786 18.0089 14.5989C17.6354 13.5503 17.2392 12.5134 16.8487 11.4706C16.7864 11.3017 16.7411 11.1327 16.7411 10.9463C16.7468 7.29947 16.7525 3.64682 16.7525 0H16.86ZM0 21.2576C2.79585 19.5391 5.59736 17.8263 8.38755 16.0903C8.73845 15.8689 8.95917 15.8573 9.28743 16.1427C10.2213 16.9641 11.1891 17.7448 12.1569 18.5254C12.3832 18.706 12.4059 18.8633 12.3606 19.1604C12.2248 19.9934 11.7946 20.477 11.0702 20.8906C7.53295 22.9121 4.02965 25.0035 0.515025 27.0715C0.350896 27.1706 0.175448 27.2463 0 27.3337V21.2576Z" fill="white"/>
<path d="M9.82518 8.48777C9.82518 6.50124 9.8365 4.51472 9.81386 2.52819C9.8082 2.14952 9.92705 1.99223 10.261 1.87572C11.7777 1.32812 13.2945 0.768859 14.8 0.180473C15.1962 0.0231824 15.2641 0.122217 15.2641 0.518358C15.2527 3.94963 15.2584 7.38091 15.2584 10.8122C15.2584 11.051 15.2188 11.2782 15.1339 11.4996C14.749 12.5249 14.3585 13.5444 13.9907 14.5755C13.8831 14.8726 13.7529 14.995 13.4247 14.9891C12.355 14.9658 11.2854 14.9658 10.2157 14.9891C9.88177 14.995 9.8082 14.8785 9.8082 14.558C9.83084 12.5366 9.82518 10.5093 9.82518 8.48777ZM31.9939 24.2402C31.9939 25.1082 31.9826 25.9762 31.9996 26.8384C32.0052 27.1763 31.9713 27.3161 31.609 27.1006C27.8114 24.8577 24.0082 22.6265 20.2106 20.3895C19.6616 20.0632 19.7691 19.4108 19.5993 18.9098C19.4748 18.5428 19.871 18.4495 20.0634 18.2806C20.969 17.5116 21.8971 16.7659 22.8027 15.997C23.0234 15.8105 23.1762 15.7698 23.4366 15.9329C26.1758 17.6398 28.9264 19.3409 31.677 21.0303C31.926 21.1817 32.0052 21.3507 31.9996 21.6361C31.9826 22.51 31.9939 23.378 31.9939 24.2402Z" fill="white"/>
<path d="M14.0134 18.6596C14.0077 18.5897 14.0021 18.5198 14.0021 18.4499C14.5058 18.0946 15.0887 18.0013 15.5698 17.8441C14.2228 17.3372 12.723 16.9527 11.2741 16.3818C11.2175 16.3411 11.1157 16.2944 11.1213 16.2595C11.127 16.0905 11.2741 16.1663 11.3534 16.1605C12.2815 16.1546 13.2041 16.1255 14.1322 16.1663C14.6076 16.1896 14.8397 16.0556 14.9755 15.5546C15.2472 14.5351 15.5981 13.5389 15.932 12.4903C16.0791 12.6185 16.1244 12.7467 16.1188 12.9039C16.2433 14.4186 16.1414 15.9333 16.1923 17.4421C16.215 17.5003 16.232 17.5528 16.2546 17.611C16.2942 17.78 16.1867 17.8732 16.0848 17.9722C15.3208 18.8694 14.7152 19.8947 13.9907 20.8209C13.8832 20.9607 13.8379 21.2637 13.538 21.0947C13.4927 20.4889 13.7417 19.9471 13.8776 19.382C13.9341 19.149 14.0473 18.916 14.0134 18.6596Z" fill="#FEC323"/>
<path d="M16.0166 17.896L16.226 17.6804C16.3335 17.5231 16.509 17.4765 16.6731 17.4299C17.7541 17.0979 18.8238 16.7192 19.8991 16.3697C20.1085 16.2998 20.3915 16.0959 20.5443 16.492C19.7802 17.0687 19.0332 17.6571 18.2521 18.2047C17.9748 18.4028 17.9012 18.5717 18.0144 18.9038C18.32 19.8242 18.5861 20.7563 18.8634 21.6826C18.9426 21.9331 18.8973 22.0438 18.6653 21.8341C18.4729 21.6593 18.3314 21.4263 18.1729 21.2166C17.556 20.2553 16.8712 19.3465 16.2373 18.397C16.1468 18.263 16.0336 18.1523 16.0109 17.9775C16.0166 17.9484 16.0166 17.9251 16.0166 17.896Z" fill="#EFB310"/>
<path d="M13.5943 21.1527C14.2961 20.1798 14.9979 19.2128 15.694 18.2341C15.7902 18.1001 15.8751 17.9719 16.0223 17.902C16.2543 18.438 16.1807 18.9973 16.1637 19.5565C16.1468 19.7313 16.0845 19.8769 15.9204 19.9526C15.0318 20.6051 14.1376 21.2576 13.249 21.91C13.1302 21.9916 13.0227 21.9392 13.0793 21.8168C13.1868 21.5547 13.2773 21.2518 13.5943 21.1527ZM11.2738 16.3816C11.3191 16.3583 11.37 16.3 11.3983 16.3058C12.8415 16.7835 14.2904 17.2612 15.7336 17.8088C15.1733 18.1059 14.6073 18.339 13.9961 18.4496C13.0906 17.7564 12.185 17.069 11.2738 16.3816Z" fill="#EFB311"/>
<path d="M20.5502 16.4864C20.3804 16.2825 20.1993 16.4165 20.0239 16.4748C18.9429 16.8301 17.8676 17.1913 16.7866 17.5467C16.6055 17.605 16.4131 17.6341 16.2319 17.6807H16.1244C16.0169 17.5117 16.1244 17.3661 16.2093 17.2496C16.5036 16.8418 16.7696 16.4107 17.0922 16.0204C17.2507 16.2185 17.4714 16.1544 17.6752 16.1544C18.7448 16.1602 19.8145 16.1544 20.9181 16.1544C20.8276 16.3699 20.6861 16.4282 20.5502 16.4864Z" fill="#FEC323"/>
<path d="M17.0921 16.0146C17.0298 16.5739 16.5601 16.871 16.3167 17.3138C16.2488 17.4361 16.1243 17.5235 16.1243 17.6808C16.0111 17.5934 16.0167 17.4652 16.0167 17.3371V13.2533C16.0167 13.131 16.0054 12.997 16.1186 12.9096C16.4808 13.9349 16.8147 14.966 17.0921 16.0146Z" fill="#EFB311"/>
<path d="M15.9089 19.947C15.9429 19.8421 15.9768 19.7373 16.0164 19.6324C16.2768 19.4343 16.4805 19.6149 16.6673 19.7606C17.2219 20.18 17.7766 20.6111 18.2294 21.1529C18.484 21.2636 18.5576 21.5374 18.7104 21.7354C18.8463 21.9044 18.8406 21.7821 18.8632 21.683C18.9651 21.7995 18.9991 21.9277 18.9255 22.1258C17.9181 21.3917 16.9163 20.6694 15.9089 19.947ZM13.5941 21.1529C13.4979 21.415 13.1697 21.5607 13.2432 21.9102C13.1753 22.0442 13.0565 22.1141 12.8414 22.1957C13.2489 20.9781 13.6337 19.8188 14.0186 18.6595C14.211 18.8343 14.0809 19.0149 14.0356 19.1955C13.8771 19.848 13.7356 20.5004 13.5941 21.1529Z" fill="#FEC323"/>
<path d="M18.2295 21.1526C17.6296 20.8205 17.1825 20.2787 16.6278 19.8826C16.4354 19.7486 16.2543 19.6204 16.0109 19.6321V17.8961C16.7863 18.9563 17.59 19.9933 18.2295 21.1526Z" fill="#FEC323"/>
</svg>
