<?xml version="1.0" encoding="utf-8"?>
<!-- Generator: Adobe Illustrator 25.2.1, SVG Export Plug-In . SVG Version: 6.00 Build 0)  -->
<svg version="1.1" id="Layer_1" xmlns="http://www.w3.org/2000/svg" x="0px" y="0px"
	 viewBox="0 220 1024 580" style="enable-background:new 0 0 1024 1024;" xml:space="preserve">
<style type="text/css">
	.st0{fill:#FFFFFF;}
	.st1{fill:#EDEDED;}
	.st2{fill:#2B33D6;}
	.st3{fill:#2B33D6;stroke:#FCFCFC;stroke-miterlimit:10;}
	.st4{opacity:5.000000e-02;}
	.st5{opacity:7.000000e-02;}
	.st6{fill:#383838;}
	.st7{fill:#00C0C0;}
	.st8{fill:none;stroke:#00C0C0;stroke-width:15;stroke-miterlimit:10;}
	.st9{fill:none;stroke:#00C0C0;stroke-width:9;stroke-miterlimit:10;}
	.st10{fill:#1A1A1A;}
	.st11{clip-path:url(#SVGID_18_);fill:url(#SVGID_19_);}
	.st12{fill-rule:evenodd;clip-rule:evenodd;fill:#1A1A1A;}
	.st13{fill-rule:evenodd;clip-rule:evenodd;fill:#00C0C0;}
	.st14{fill-rule:evenodd;clip-rule:evenodd;fill:#5C7EE6;}
	.st15{fill:none;stroke:#00C0C0;stroke-width:7;stroke-miterlimit:10;}
	.st16{fill:none;stroke:#00C0C0;stroke-width:8;stroke-miterlimit:10;}
	.st17{fill:none;stroke:#00C0C0;stroke-width:9;stroke-linecap:square;stroke-miterlimit:10;}
	.st18{fill:none;stroke:#000000;stroke-width:2;stroke-miterlimit:10;}
	.st19{fill:none;stroke:#000000;stroke-miterlimit:10;}
	.st20{fill:url(#SVGID_20_);}
	.st21{opacity:0.63;fill:url(#SVGID_21_);}
	.st22{opacity:0.63;fill:url(#SVGID_22_);}
	.st23{opacity:0.48;fill:url(#SVGID_23_);}
	.st24{fill:url(#SVGID_24_);}
	.st25{opacity:0.63;fill:url(#SVGID_25_);}
	.st26{opacity:0.63;fill:url(#SVGID_26_);}
	.st27{opacity:0.48;fill:url(#SVGID_27_);}
	.st28{fill:url(#SVGID_28_);}
	.st29{opacity:0.63;fill:url(#SVGID_29_);}
	.st30{opacity:0.63;fill:url(#SVGID_30_);}
	.st31{opacity:0.48;fill:url(#SVGID_31_);}
	.st32{fill:url(#SVGID_32_);}
	.st33{opacity:0.48;fill:url(#SVGID_33_);}
	.st34{fill:url(#SVGID_34_);}
	.st35{opacity:0.48;fill:url(#SVGID_35_);}
	.st36{fill:url(#SVGID_36_);}
	.st37{opacity:0.48;fill:url(#SVGID_37_);}
	.st38{fill:url(#SVGID_38_);}
	.st39{opacity:0.63;fill:url(#SVGID_39_);}
	.st40{opacity:0.63;fill:url(#SVGID_40_);}
	.st41{opacity:0.7;fill:url(#SVGID_41_);}
	.st42{fill:url(#SVGID_42_);}
	.st43{opacity:0.48;fill:url(#SVGID_43_);}
	.st44{fill:#0092D0;}
	.st45{fill:#008BC1;}
	.st46{fill:#FFC200;}
	.st47{fill:#FCB000;}
	.st48{fill:#1E1E1E;}
	.st49{fill:#FC0A7A;}
	.st50{fill:#E60777;}
	.st51{fill:#00609C;}
	.st52{fill:#009ADE;}
	.st53{fill:#56BC80;}
	.st54{fill:#231F20;}
	.st55{fill:#199CBF;}
	.st56{opacity:0.5;fill:#231F20;}
	.st57{opacity:0.6;fill:#0B0BD3;}
	.st58{opacity:0.8;fill:#0B0BD3;}
	.st59{fill:#0B0BD3;}
	.st60{fill:#004A51;}
	.st61{fill:none;stroke:#FF7168;stroke-width:28;stroke-linecap:round;stroke-miterlimit:10;}
	.st62{fill:#F3FFFE;}
	.st63{fill:#29D7D2;}
	.st64{fill:#ED6F6A;}
	.st65{fill:none;}
	.st66{fill:#29D6D1;}
	.st67{fill:#F6F0E0;}
	.st68{opacity:0.5;fill:#B9B4A8;}
	.st69{fill:none;stroke:#F6F0E0;stroke-width:2;stroke-miterlimit:10;}
	.st70{fill:none;stroke:#7B7870;stroke-width:2;stroke-miterlimit:10;}
	.st71{fill:#F1FFFC;}
	.st72{opacity:0.95;fill:#FFFFFF;}
	.st73{fill:#00FFFF;}
	.st74{fill:#2E2E2E;}
	.st75{fill:#FFFFFF;stroke:#000000;stroke-miterlimit:10;}
	.st76{opacity:0.58;}
	.st77{opacity:0.62;}
	.st78{opacity:0.73;}
	.st79{opacity:0.53;fill:#2B33D6;stroke:#FCFCFC;stroke-miterlimit:10;}
	.st80{opacity:0.53;fill:#2B33D6;stroke:#F5F7F7;stroke-miterlimit:10;}
	.st81{opacity:0.33;}
	.st82{fill:#FFFFFF;stroke:#FCFCFC;stroke-miterlimit:10;}
	.st83{opacity:0.38;}
	.st84{fill:none;stroke:#FFFFFF;stroke-width:4;stroke-miterlimit:10;}
	.st85{fill:#545454;}
	.st86{fill:none;stroke:#000000;stroke-width:3;stroke-miterlimit:10;}
	.st87{fill:none;stroke:#000000;stroke-width:0.75;stroke-miterlimit:10;}
	.st88{fill:#FF0000;}
	.st89{fill:none;stroke:#000000;stroke-width:34;stroke-miterlimit:10;}
	.st90{opacity:0.95;fill:#EFEFEF;}
	.st91{opacity:0.25;}
</style>
<g>
	<path class="st2" d="M540.6,456.9c-15.6-10.4-33.3-15.6-53.2-15.6c-15.1,0-30.6,3.2-46.5,9.6l-11.3,5c-2.1,0.9-3.8,2.5-5.1,4.6
		c-1.3,2.1-2,4.3-2,6.4c0,2.1,0.5,4,1.4,5.7c1.2,2.1,2.7,3.8,4.6,5.1c1.9,1.3,4,2,6.4,2c1.9,0,3.7-0.5,5.3-1.4l10.3-4.6
		c11.3-5,23.3-7.4,35.8-7.4c15.4,0,28.8,3.8,40.4,11.4c6.1,4,10.9,8.8,14.4,14.4c3.4,5.6,5.1,11.5,5.1,17.9v32.6H405.5h-36.6h-16.3
		v-86.9c0-3.3-1.2-6.2-3.7-8.7c-2.5-2.5-5.4-3.7-8.7-3.7h-26.2c-21,0-36.4,4.7-45.9,14.2c-9.6,9.5-14.4,24.6-14.4,45.4v15.6
		c0,16.1-3.5,29.7-10.6,40.8c-7.1,11.1-16.3,19.4-27.7,24.8c-11.4,5.4-23.3,8.2-35.8,8.2c-12.8,0-24.9-2.8-36.4-8.3
		c-8.6-4.1-15.9-9.9-22.1-17.3c-3.8-4.5-10.3-5.5-15.4-2.5c-6.5,3.8-8.1,12.6-3.3,18.3c8,9.6,17.6,17.2,28.7,22.9
		c15.3,7.8,31.4,11.7,48.4,11.7c17,0,33.1-3.8,48.2-11.5c15.1-7.7,27.4-19,36.7-33.9c9.3-14.9,14-32.6,14-53.2v-18.1
		c0-8.7,1.1-15.4,3.2-20c2.1-4.6,5.7-7.8,10.6-9.6c5-1.8,12.2-2.7,21.6-2.7h13.8v74.5c0,8,2,14.2,6,18.4c4,4.3,10.2,6.4,18.4,6.4
		h16.7h36.6h153.2c3.3,0,6.1-1.2,8.5-3.7c2.4-2.5,3.5-5.4,3.5-8.7v-45c0-11.1-2.8-21.3-8.5-30.5
		C557.5,470.7,550.3,463.2,540.6,456.9z"/>
	<path class="st2" d="M620.2,572.4c2.5-2.4,3.7-5.2,3.7-8.5V414.6c0-3.3-1.2-6.1-3.7-8.5c-2.5-2.4-5.4-3.5-8.7-3.5
		c-3.3,0-6.2,1.2-8.7,3.5c-2.5,2.4-3.7,5.2-3.7,8.5v149.3c0,3.3,1.2,6.2,3.7,8.5c2.5,2.4,5.4,3.5,8.7,3.5
		C614.9,576,617.7,574.8,620.2,572.4z"/>
	<path class="st2" d="M929.9,448.8c-9.1-10.2-21.1-15.3-36-15.3c-15.1,0-27.1,5.1-36,15.3c-8.9,10.2-13.4,23.8-13.7,40.8v25.2
		c0,3.3-0.6,6.1-1.9,8.5c-0.3,0.3-0.6,0.6-0.9,0.9c-6.2,7.4-13.6,13.1-22.1,17.3c-11.5,5.6-23.6,8.3-36.4,8.3
		c-12.5,0-24.5-2.7-35.8-8.2c-11.3-5.4-20.6-13.7-27.7-24.8c-7.1-11.1-10.6-24.7-10.6-40.8v-15.6l-0.1,0v-5c0-3.3-1.2-6.2-3.5-8.7
		c-2.4-2.5-5.3-3.7-8.9-3.7c-3.3,0-6.2,1.2-8.7,3.7c-2.5,2.5-3.7,5.4-3.7,8.7v85.1c0,14.4-2.7,27.4-8,39
		c-5.3,11.6-12.7,20.7-22.2,27.3c-9.5,6.6-20,9.9-31.6,9.9c-3.3,0-6.2,1.2-8.7,3.5c-2.5,2.4-3.7,5.2-3.7,8.5c0,3.5,1.2,6.6,3.7,9
		c2.5,2.5,5.4,3.7,8.7,3.7c20.6,0,38.5-6.9,53.7-20.6c15.3-13.7,25.2-31.7,30-53.9l2.7-23.9c7.4,8.2,16.1,14.8,26,19.8
		c15.1,7.7,31.2,11.5,48.2,11.5c17,0,33.2-3.9,48.4-11.7c6.2-3.2,12-7,17.2-11.4c4.5-2.1,8.2-4.6,10.9-7.6
		c8.7,9.2,20.2,13.8,34.4,13.8c15.1,0,27.2-5.1,36.2-15.3c9-10.2,13.5-23.9,13.5-41.1v-11.7C943.5,472.6,939,459,929.9,448.8z
		 M918.7,501.3c0,10.4-2.1,18.3-6.4,23.6c-4.3,5.3-10.4,8-18.4,8c-9.7,0-16.3-3.2-19.7-9.6c-3.4-6.4-5.1-13.7-5.1-22v-11.7
		c0.7-20.8,9-31.2,24.8-31.2c8,0,14.2,2.7,18.4,8c4.3,5.3,6.4,13.1,6.4,23.2V501.3z"/>
	<path class="st2" d="M696.3,427.4c6.9,0,12.5-5.6,12.5-12.5c0-6.9-5.6-12.5-12.5-12.5c-6.9,0-12.5,5.6-12.5,12.5
		C683.8,421.8,689.4,427.4,696.3,427.4z"/>
	<circle class="st2" cx="494.1" cy="611.9" r="12.5"/>
	<circle class="st2" cx="166.4" cy="659.4" r="12.5"/>
	<circle class="st2" cx="203.9" cy="659.4" r="12.5"/>
	<path class="st2" d="M121.6,551.2c-4.3-7.6-10.7-10.9-18.5-10.6c-11.3,0.3-19.7,5.7-23.8,16.5c-3.2,8.4-2.3,16.4,4.8,24.6
		c-0.3-11.5,1.1-21,9.9-27.6C102.4,547.8,111.9,549.2,121.6,551.2z"/>
</g>
</svg>
