<?xml version="1.0" encoding="utf-8"?>
<!-- Generator: Adobe Illustrator 25.2.1, SVG Export Plug-In . SVG Version: 6.00 Build 0)  -->
<svg version="1.1" id="Layer_1" xmlns="http://www.w3.org/2000/svg" xmlns:xlink="http://www.w3.org/1999/xlink" x="0px" y="0px"
	 viewBox="0 0 1024 1024" style="enable-background:new 0 0 1024 1024;" xml:space="preserve">
<style type="text/css">
	.st0{fill:#FFFFFF;}
	.st1{fill:#EDEDED;}
	.st2{fill:#2B33D6;}
	.st3{fill:#2B33D6;stroke:#FCFCFC;stroke-miterlimit:10;}
	.st4{opacity:5.000000e-02;}
	.st5{opacity:7.000000e-02;}
	.st6{fill:#383838;}
	.st7{fill:#00C0C0;}
	.st8{fill:none;stroke:#00C0C0;stroke-width:15;stroke-miterlimit:10;}
	.st9{fill:none;stroke:#00C0C0;stroke-width:9;stroke-miterlimit:10;}
	.st10{fill:#1A1A1A;}
	.st11{clip-path:url(#SVGID_18_);fill:url(#SVGID_19_);}
	.st12{fill-rule:evenodd;clip-rule:evenodd;fill:#1A1A1A;}
	.st13{fill-rule:evenodd;clip-rule:evenodd;fill:#00C0C0;}
	.st14{fill-rule:evenodd;clip-rule:evenodd;fill:#5C7EE6;}
	.st15{fill:none;stroke:#00C0C0;stroke-width:7;stroke-miterlimit:10;}
	.st16{fill:none;stroke:#00C0C0;stroke-width:8;stroke-miterlimit:10;}
	.st17{fill:none;stroke:#00C0C0;stroke-width:9;stroke-linecap:square;stroke-miterlimit:10;}
	.st18{fill:none;stroke:#000000;stroke-width:2;stroke-miterlimit:10;}
	.st19{fill:none;stroke:#000000;stroke-miterlimit:10;}
	.st20{fill:url(#SVGID_20_);}
	.st21{opacity:0.63;fill:url(#SVGID_21_);}
	.st22{opacity:0.63;fill:url(#SVGID_22_);}
	.st23{opacity:0.48;fill:url(#SVGID_23_);}
	.st24{fill:url(#SVGID_24_);}
	.st25{opacity:0.63;fill:url(#SVGID_25_);}
	.st26{opacity:0.63;fill:url(#SVGID_26_);}
	.st27{opacity:0.48;fill:url(#SVGID_27_);}
	.st28{fill:url(#SVGID_28_);}
	.st29{opacity:0.63;fill:url(#SVGID_29_);}
	.st30{opacity:0.63;fill:url(#SVGID_30_);}
	.st31{opacity:0.48;fill:url(#SVGID_31_);}
	.st32{fill:url(#SVGID_32_);}
	.st33{opacity:0.48;fill:url(#SVGID_33_);}
	.st34{fill:url(#SVGID_34_);}
	.st35{opacity:0.48;fill:url(#SVGID_35_);}
	.st36{fill:url(#SVGID_36_);}
	.st37{opacity:0.48;fill:url(#SVGID_37_);}
	.st38{fill:url(#SVGID_38_);}
	.st39{opacity:0.63;fill:url(#SVGID_39_);}
	.st40{opacity:0.63;fill:url(#SVGID_40_);}
	.st41{opacity:0.7;fill:url(#SVGID_41_);}
	.st42{fill:url(#SVGID_42_);}
	.st43{opacity:0.48;fill:url(#SVGID_43_);}
	.st44{fill:#0092D0;}
	.st45{fill:#008BC1;}
	.st46{fill:#FFC200;}
	.st47{fill:#FCB000;}
	.st48{fill:#1E1E1E;}
	.st49{fill:#FC0A7A;}
	.st50{fill:#E60777;}
	.st51{fill:#00609C;}
	.st52{fill:#009ADE;}
	.st53{fill:#56BC80;}
	.st54{fill:#231F20;}
	.st55{fill:#199CBF;}
	.st56{opacity:0.5;fill:#231F20;}
	.st57{opacity:0.6;fill:#0B0BD3;}
	.st58{opacity:0.8;fill:#0B0BD3;}
	.st59{fill:#0B0BD3;}
	.st60{fill:#004A51;}
	.st61{fill:none;stroke:#FF7168;stroke-width:28;stroke-linecap:round;stroke-miterlimit:10;}
	.st62{fill:#F3FFFE;}
	.st63{fill:#29D7D2;}
	.st64{fill:#ED6F6A;}
	.st65{fill:none;}
	.st66{fill:#29D6D1;}
	.st67{fill:#F6F0E0;}
	.st68{opacity:0.5;fill:#B9B4A8;}
	.st69{fill:none;stroke:#F6F0E0;stroke-width:2;stroke-miterlimit:10;}
	.st70{fill:none;stroke:#7B7870;stroke-width:2;stroke-miterlimit:10;}
	.st71{fill:#F1FFFC;}
	.st72{opacity:0.95;fill:#FFFFFF;}
	.st73{fill:#00FFFF;}
	.st74{fill:#2E2E2E;}
	.st75{fill:#FFFFFF;stroke:#000000;stroke-miterlimit:10;}
	.st76{opacity:0.58;}
	.st77{opacity:0.62;}
	.st78{opacity:0.73;}
	.st79{opacity:0.53;fill:#2B33D6;stroke:#FCFCFC;stroke-miterlimit:10;}
	.st80{opacity:0.53;fill:#2B33D6;stroke:#F5F7F7;stroke-miterlimit:10;}
	.st81{opacity:0.33;}
	.st82{fill:#FFFFFF;stroke:#FCFCFC;stroke-miterlimit:10;}
	.st83{opacity:0.38;}
	.st84{fill:none;stroke:#FFFFFF;stroke-width:4;stroke-miterlimit:10;}
	.st85{fill:#545454;}
	.st86{fill:none;stroke:#000000;stroke-width:3;stroke-miterlimit:10;}
	.st87{fill:none;stroke:#000000;stroke-width:0.75;stroke-miterlimit:10;}
	.st88{fill:#FF0000;}
	.st89{fill:none;stroke:#000000;stroke-width:34;stroke-miterlimit:10;}
	.st90{opacity:0.95;fill:#EFEFEF;}
	.st91{opacity:0.25;}
</style>
<g>
	<g>
		<g>
			<g>
				<path class="st0" d="M190.9,801.4c-12.8,0-23.2-10.4-23.2-23.2c-0.1-55.6-0.2-106.5-0.2-157.3c-0.1-50.8-0.2-101.6-0.2-157.3
					l-0.1-63l40.9,47.9c20.8,24.3,133.5,145.4,314,142.3c165.1-2.7,268.8-106,296.6-137.6l40.6-46.1v250.6
					c0,12.8-10.4,23.2-23.2,23.2c-12.8,0-23.2-10.4-23.2-23.2V523.9c-54.6,47.2-153.4,111.2-290.1,113.4c-2.4,0-4.9,0.1-7.3,0.1
					c-142.9,0-246.8-69.4-301.8-117.7c0.1,34.6,0.1,67.9,0.2,101.2c0.1,50.8,0.2,101.6,0.2,157.3C214.1,791,203.7,801.4,190.9,801.4
					C190.9,801.4,190.9,801.4,190.9,801.4z"/>
			</g>
		</g>
		<g>
			<path class="st0" d="M514.5,561.2c-70.6,0-139.8-19.4-200.5-56.3c-61.4-37.3-111.3-90.8-144.3-154.7c-5.9-11.4-1.4-25.4,10-31.3
				c11.4-5.9,25.4-1.4,31.3,10c59.2,114.8,175.3,185.8,303.5,185.8c0.8,0,1.7,0,2.5,0c124.9-0.9,239.3-70.3,298.6-181.1
				c6-11.3,20.1-15.6,31.4-9.5c11.3,6,15.6,20.1,9.5,31.4c-67.3,125.8-197.3,204.6-339.2,205.6C516.4,561.2,515.5,561.2,514.5,561.2
				z"/>
		</g>
		<g>
			<g>
				<path class="st0" d="M792.7,291.7c11.9-21.2,29.9-30.4,51.8-29.7c31.5,1,55,15.9,66.5,46.1c9,23.5,6.5,45.7-13.3,68.7
					c0.9-32.1-3-58.6-27.7-76.9C846.2,282.2,819.9,286.1,792.7,291.7z"/>
			</g>
			<g>
				<path class="st0" d="M236.6,291.7c-11.9-21.2-29.9-30.4-51.8-29.7c-31.5,1-55,15.9-66.5,46.1c-9,23.5-6.5,45.7,13.3,68.7
					c-0.9-32.1,3-58.6,27.7-76.9C183.1,282.2,209.4,286.1,236.6,291.7z"/>
			</g>
		</g>
	</g>
</g>
</svg>
