<svg width="13" height="12" viewBox="0 0 13 12" fill="none" xmlns="http://www.w3.org/2000/svg">
<path d="M11 5.87507H2C1.52 5.87507 1.125 5.48007 1.125 5.00007V3.34006C1.125 3.00006 1.35999 2.65507 1.67499 2.53007L6.17499 0.730078C6.36499 0.655078 6.63501 0.655078 6.82501 0.730078L11.325 2.53007C11.64 2.65507 11.875 3.00506 11.875 3.34006V5.00007C11.875 5.48007 11.48 5.87507 11 5.87507ZM6.5 1.42008C6.48 1.42008 6.46001 1.42005 6.45001 1.42505L1.95499 3.22507C1.92499 3.24007 1.875 3.30506 1.875 3.34006V5.00007C1.875 5.07007 1.93 5.12507 2 5.12507H11C11.07 5.12507 11.125 5.07007 11.125 5.00007V3.34006C11.125 3.30506 11.08 3.24007 11.045 3.22507L6.54501 1.42505C6.53501 1.42005 6.52 1.42008 6.5 1.42008Z" fill="#292D32"/>
<path d="M11.5 11.375H1.5C1.295 11.375 1.125 11.205 1.125 11V9.5C1.125 9.02 1.52 8.625 2 8.625H11C11.48 8.625 11.875 9.02 11.875 9.5V11C11.875 11.205 11.705 11.375 11.5 11.375ZM1.875 10.625H11.125V9.5C11.125 9.43 11.07 9.375 11 9.375H2C1.93 9.375 1.875 9.43 1.875 9.5V10.625Z" fill="#292D32"/>
<path d="M2.5 9.375C2.295 9.375 2.125 9.205 2.125 9V5.5C2.125 5.295 2.295 5.125 2.5 5.125C2.705 5.125 2.875 5.295 2.875 5.5V9C2.875 9.205 2.705 9.375 2.5 9.375Z" fill="#292D32"/>
<path d="M4.5 9.375C4.295 9.375 4.125 9.205 4.125 9V5.5C4.125 5.295 4.295 5.125 4.5 5.125C4.705 5.125 4.875 5.295 4.875 5.5V9C4.875 9.205 4.705 9.375 4.5 9.375Z" fill="#292D32"/>
<path d="M6.5 9.375C6.295 9.375 6.125 9.205 6.125 9V5.5C6.125 5.295 6.295 5.125 6.5 5.125C6.705 5.125 6.875 5.295 6.875 5.5V9C6.875 9.205 6.705 9.375 6.5 9.375Z" fill="#292D32"/>
<path d="M8.5 9.375C8.295 9.375 8.125 9.205 8.125 9V5.5C8.125 5.295 8.295 5.125 8.5 5.125C8.705 5.125 8.875 5.295 8.875 5.5V9C8.875 9.205 8.705 9.375 8.5 9.375Z" fill="#292D32"/>
<path d="M10.5 9.375C10.295 9.375 10.125 9.205 10.125 9V5.5C10.125 5.295 10.295 5.125 10.5 5.125C10.705 5.125 10.875 5.295 10.875 5.5V9C10.875 9.205 10.705 9.375 10.5 9.375Z" fill="#292D32"/>
<path d="M12 11.375H1C0.795 11.375 0.625 11.205 0.625 11C0.625 10.795 0.795 10.625 1 10.625H12C12.205 10.625 12.375 10.795 12.375 11C12.375 11.205 12.205 11.375 12 11.375Z" fill="#292D32"/>
<path d="M6.5 4.625C5.88 4.625 5.375 4.12 5.375 3.5C5.375 2.88 5.88 2.375 6.5 2.375C7.12 2.375 7.625 2.88 7.625 3.5C7.625 4.12 7.12 4.625 6.5 4.625ZM6.5 3.125C6.295 3.125 6.125 3.295 6.125 3.5C6.125 3.705 6.295 3.875 6.5 3.875C6.705 3.875 6.875 3.705 6.875 3.5C6.875 3.295 6.705 3.125 6.5 3.125Z" fill="#292D32"/>
</svg>
