<svg width="21" height="21" viewBox="0 0 21 21" fill="none" xmlns="http://www.w3.org/2000/svg">
<path d="M18 10.2918H2.99996C2.19996 10.2918 1.54163 9.63345 1.54163 8.83345V6.06677C1.54163 5.50011 1.93327 4.92511 2.45827 4.71678L9.95827 1.7168C10.2749 1.5918 10.725 1.5918 11.0416 1.7168L18.5416 4.71678C19.0666 4.92511 19.4583 5.50844 19.4583 6.06677V8.83345C19.4583 9.63345 18.8 10.2918 18 10.2918ZM10.5 2.8668C10.4666 2.8668 10.4333 2.86676 10.4166 2.87509L2.92494 5.87512C2.87494 5.90012 2.79163 6.00844 2.79163 6.06677V8.83345C2.79163 8.95011 2.88329 9.04178 2.99996 9.04178H18C18.1166 9.04178 18.2083 8.95011 18.2083 8.83345V6.06677C18.2083 6.00844 18.1333 5.90012 18.075 5.87512L10.575 2.87509C10.5583 2.86676 10.5333 2.8668 10.5 2.8668Z" fill="white"/>
<path d="M18.8333 19.4583H2.16663C1.82496 19.4583 1.54163 19.175 1.54163 18.8333V16.3333C1.54163 15.5333 2.19996 14.875 2.99996 14.875H18C18.8 14.875 19.4583 15.5333 19.4583 16.3333V18.8333C19.4583 19.175 19.175 19.4583 18.8333 19.4583ZM2.79163 18.2083H18.2083V16.3333C18.2083 16.2167 18.1166 16.125 18 16.125H2.99996C2.88329 16.125 2.79163 16.2167 2.79163 16.3333V18.2083Z" fill="white"/>
<path d="M3.83337 16.1248C3.49171 16.1248 3.20837 15.8415 3.20837 15.4998V9.6665C3.20837 9.32484 3.49171 9.0415 3.83337 9.0415C4.17504 9.0415 4.45837 9.32484 4.45837 9.6665V15.4998C4.45837 15.8415 4.17504 16.1248 3.83337 16.1248Z" fill="white"/>
<path d="M7.16663 16.1248C6.82496 16.1248 6.54163 15.8415 6.54163 15.4998V9.6665C6.54163 9.32484 6.82496 9.0415 7.16663 9.0415C7.50829 9.0415 7.79163 9.32484 7.79163 9.6665V15.4998C7.79163 15.8415 7.50829 16.1248 7.16663 16.1248Z" fill="white"/>
<path d="M10.5 16.1248C10.1583 16.1248 9.875 15.8415 9.875 15.4998V9.6665C9.875 9.32484 10.1583 9.0415 10.5 9.0415C10.8417 9.0415 11.125 9.32484 11.125 9.6665V15.4998C11.125 15.8415 10.8417 16.1248 10.5 16.1248Z" fill="white"/>
<path d="M13.8334 16.1248C13.4917 16.1248 13.2084 15.8415 13.2084 15.4998V9.6665C13.2084 9.32484 13.4917 9.0415 13.8334 9.0415C14.175 9.0415 14.4584 9.32484 14.4584 9.6665V15.4998C14.4584 15.8415 14.175 16.1248 13.8334 16.1248Z" fill="white"/>
<path d="M17.1666 16.1248C16.825 16.1248 16.5416 15.8415 16.5416 15.4998V9.6665C16.5416 9.32484 16.825 9.0415 17.1666 9.0415C17.5083 9.0415 17.7916 9.32484 17.7916 9.6665V15.4998C17.7916 15.8415 17.5083 16.1248 17.1666 16.1248Z" fill="white"/>
<path d="M19.6667 19.4585H1.33337C0.991707 19.4585 0.708374 19.1752 0.708374 18.8335C0.708374 18.4918 0.991707 18.2085 1.33337 18.2085H19.6667C20.0084 18.2085 20.2917 18.4918 20.2917 18.8335C20.2917 19.1752 20.0084 19.4585 19.6667 19.4585Z" fill="white"/>
<path d="M10.5 8.2085C9.46667 8.2085 8.625 7.36683 8.625 6.3335C8.625 5.30016 9.46667 4.4585 10.5 4.4585C11.5333 4.4585 12.375 5.30016 12.375 6.3335C12.375 7.36683 11.5333 8.2085 10.5 8.2085ZM10.5 5.7085C10.1583 5.7085 9.875 5.99183 9.875 6.3335C9.875 6.67516 10.1583 6.9585 10.5 6.9585C10.8417 6.9585 11.125 6.67516 11.125 6.3335C11.125 5.99183 10.8417 5.7085 10.5 5.7085Z" fill="white"/>
</svg>
