<svg width="16" height="16" viewBox="0 0 16 16" fill="none" xmlns="http://www.w3.org/2000/svg">
<path d="M12.6667 1.33325H3.33333C1.49533 1.33325 0 2.82859 0 4.66659V13.9999C0 14.3686 0.298667 14.6666 0.666667 14.6666C1.03467 14.6666 1.33333 14.3686 1.33333 13.9999V12.6666H14.6667V13.9999C14.6667 14.3686 14.9647 14.6666 15.3333 14.6666C15.702 14.6666 16 14.3686 16 13.9999V4.66659C16 2.82859 14.5047 1.33325 12.6667 1.33325ZM3.33333 2.66659H12.6667C13.7693 2.66659 14.6667 3.56392 14.6667 4.66659V8.66659H13.3333C13.3333 7.19592 12.1373 5.99992 10.6667 5.99992H10C9.204 5.99992 8.48933 6.35059 8 6.90459C7.51067 6.34992 6.796 5.99992 6 5.99992H5.33333C3.86267 5.99992 2.66667 7.19592 2.66667 8.66659H1.33333V4.66659C1.33333 3.56392 2.23067 2.66659 3.33333 2.66659ZM8.66667 8.66659C8.66667 7.93125 9.26467 7.33325 10 7.33325H10.6667C11.402 7.33325 12 7.93125 12 8.66659H8.66667ZM4 8.66659C4 7.93125 4.598 7.33325 5.33333 7.33325H6C6.73533 7.33325 7.33333 7.93125 7.33333 8.66659H4ZM1.33333 11.3333V9.99992H14.6667V11.3333H1.33333Z" fill="#605A65"/>
</svg>
