<svg width="24" height="25" viewBox="0 0 24 25" fill="none" xmlns="http://www.w3.org/2000/svg">
<path d="M22.0049 23.25H2.00488C1.59488 23.25 1.25488 22.91 1.25488 22.5C1.25488 22.09 1.59488 21.75 2.00488 21.75H22.0049C22.4149 21.75 22.7549 22.09 22.7549 22.5C22.7549 22.91 22.4149 23.25 22.0049 23.25Z" fill="#605A65"/>
<path d="M21.0049 23.25H3.00488C2.59488 23.25 2.25488 22.91 2.25488 22.5V6.5C2.25488 3.48 3.98488 1.75 7.00488 1.75H17.0049C20.0249 1.75 21.7549 3.48 21.7549 6.5V22.5C21.7549 22.91 21.4149 23.25 21.0049 23.25ZM3.75488 21.75H20.2549V6.5C20.2549 4.28 19.2249 3.25 17.0049 3.25H7.00488C4.78488 3.25 3.75488 4.28 3.75488 6.5V21.75Z" fill="#605A65"/>
<path d="M10.0049 17.75H7.00488C6.59488 17.75 6.25488 17.41 6.25488 17C6.25488 16.59 6.59488 16.25 7.00488 16.25H10.0049C10.4149 16.25 10.7549 16.59 10.7549 17C10.7549 17.41 10.4149 17.75 10.0049 17.75Z" fill="#605A65"/>
<path d="M17.0049 17.75H14.0049C13.5949 17.75 13.2549 17.41 13.2549 17C13.2549 16.59 13.5949 16.25 14.0049 16.25H17.0049C17.4149 16.25 17.7549 16.59 17.7549 17C17.7549 17.41 17.4149 17.75 17.0049 17.75Z" fill="#605A65"/>
<path d="M10.0049 13.25H7.00488C6.59488 13.25 6.25488 12.91 6.25488 12.5C6.25488 12.09 6.59488 11.75 7.00488 11.75H10.0049C10.4149 11.75 10.7549 12.09 10.7549 12.5C10.7549 12.91 10.4149 13.25 10.0049 13.25Z" fill="#605A65"/>
<path d="M17.0049 13.25H14.0049C13.5949 13.25 13.2549 12.91 13.2549 12.5C13.2549 12.09 13.5949 11.75 14.0049 11.75H17.0049C17.4149 11.75 17.7549 12.09 17.7549 12.5C17.7549 12.91 17.4149 13.25 17.0049 13.25Z" fill="#605A65"/>
<path d="M10.0049 8.75H7.00488C6.59488 8.75 6.25488 8.41 6.25488 8C6.25488 7.59 6.59488 7.25 7.00488 7.25H10.0049C10.4149 7.25 10.7549 7.59 10.7549 8C10.7549 8.41 10.4149 8.75 10.0049 8.75Z" fill="#605A65"/>
<path d="M17.0049 8.75H14.0049C13.5949 8.75 13.2549 8.41 13.2549 8C13.2549 7.59 13.5949 7.25 14.0049 7.25H17.0049C17.4149 7.25 17.7549 7.59 17.7549 8C17.7549 8.41 17.4149 8.75 17.0049 8.75Z" fill="#605A65"/>
</svg>
