<svg width="24" height="25" viewBox="0 0 24 25" fill="none" xmlns="http://www.w3.org/2000/svg">
<path d="M12.0049 23.25C6.07488 23.25 1.25488 18.43 1.25488 12.5C1.25488 6.57 6.07488 1.75 12.0049 1.75C17.9349 1.75 22.7549 6.57 22.7549 12.5C22.7549 18.43 17.9349 23.25 12.0049 23.25ZM12.0049 3.25C6.90488 3.25 2.75488 7.4 2.75488 12.5C2.75488 17.6 6.90488 21.75 12.0049 21.75C17.1049 21.75 21.2549 17.6 21.2549 12.5C21.2549 7.4 17.1049 3.25 12.0049 3.25Z" fill="#605A65"/>
<path d="M15.7148 16.43C15.5848 16.43 15.4548 16.4 15.3348 16.32L12.2348 14.47C11.4648 14.01 10.8948 13 10.8948 12.11V8.01001C10.8948 7.60001 11.2348 7.26001 11.6448 7.26001C12.0548 7.26001 12.3948 7.60001 12.3948 8.01001V12.11C12.3948 12.47 12.6948 13 13.0048 13.18L16.1048 15.03C16.4648 15.24 16.5748 15.7 16.3648 16.06C16.2148 16.3 15.9648 16.43 15.7148 16.43Z" fill="#605A65"/>
</svg>
