<svg width="20" height="21" viewBox="0 0 20 21" fill="none" xmlns="http://www.w3.org/2000/svg">
<path d="M13.3335 20.2664C13.1085 20.2664 12.9001 20.1415 12.7918 19.9498C12.6835 19.7582 12.6835 19.5165 12.8001 19.3248L13.6751 17.8665C13.8501 17.5665 14.2335 17.4748 14.5335 17.6498C14.8335 17.8248 14.9251 18.2081 14.7501 18.5081L14.5251 18.8831C16.8251 18.3415 18.5501 16.2748 18.5501 13.8081C18.5501 13.4664 18.8335 13.1831 19.1751 13.1831C19.5168 13.1831 19.8001 13.4664 19.8001 13.8081C19.7918 17.3664 16.8918 20.2664 13.3335 20.2664Z" fill="#292D32"/>
<path d="M0.833374 7.76644C0.491707 7.76644 0.208374 7.48311 0.208374 7.14144C0.208374 3.58311 3.10837 0.683105 6.66671 0.683105C6.89171 0.683105 7.10004 0.80811 7.20837 0.999776C7.31671 1.19144 7.31671 1.43311 7.20004 1.62478L6.32504 3.08311C6.15004 3.38311 5.76671 3.47478 5.46671 3.29978C5.16671 3.12478 5.07504 2.74148 5.25004 2.44148L5.47504 2.06647C3.17504 2.60813 1.45004 4.67477 1.45004 7.14144C1.45838 7.48311 1.17504 7.76644 0.833374 7.76644Z" fill="#292D32"/>
<path d="M7.85839 13.8999H5.51672C5.17506 13.8999 4.89172 13.6166 4.89172 13.2749V11.3999C4.89172 11.0582 5.17506 10.7749 5.51672 10.7749H7.85839C8.69172 10.7749 9.42506 11.5082 9.42506 12.3416C9.42506 13.1916 8.71672 13.8999 7.85839 13.8999ZM6.14172 12.6499H7.85839C8.03339 12.6499 8.17506 12.5082 8.17506 12.3332C8.17506 12.2082 8.03339 12.0166 7.85839 12.0166H6.14172V12.6499Z" fill="#292D32"/>
<path d="M8.19151 15.7749H5.50818C5.16651 15.7749 4.88318 15.4916 4.88318 15.1499V13.2749C4.88318 12.9332 5.16651 12.6499 5.50818 12.6499H8.19151C9.12485 12.6499 9.89151 13.3499 9.89151 14.2166C9.89151 15.0832 9.13318 15.7749 8.19151 15.7749ZM6.14151 14.5249H8.19984C8.46651 14.5249 8.64985 14.3582 8.64985 14.2082C8.64985 14.0582 8.46651 13.8916 8.19984 13.8916H6.14151V14.5249Z" fill="#292D32"/>
<path d="M7.0166 16.7083C6.67493 16.7083 6.3916 16.4249 6.3916 16.0833V15.1416C6.3916 14.7999 6.67493 14.5166 7.0166 14.5166C7.35827 14.5166 7.6416 14.7999 7.6416 15.1416V16.0833C7.6416 16.4333 7.35827 16.7083 7.0166 16.7083Z" fill="#292D32"/>
<path d="M7.0166 12.0169C6.67493 12.0169 6.3916 11.7335 6.3916 11.3919V10.4502C6.3916 10.1085 6.67493 9.8252 7.0166 9.8252C7.35827 9.8252 7.6416 10.1085 7.6416 10.4502V11.3919C7.6416 11.7419 7.35827 12.0169 7.0166 12.0169Z" fill="#292D32"/>
<path d="M7.22504 19.0417C4.04171 19.0417 1.45837 16.45 1.45837 13.275C1.45837 10.1 4.05004 7.5083 7.22504 7.5083C7.37504 7.5083 7.50837 7.51665 7.65837 7.52498C10.4834 7.74165 12.7667 10.025 12.975 12.8333C12.9834 13.0166 12.9917 13.1417 12.9917 13.275C13 16.45 10.4084 19.0417 7.22504 19.0417ZM7.22504 8.75001C4.73337 8.75001 2.70837 10.775 2.70837 13.2667C2.70837 15.7583 4.73337 17.7833 7.22504 17.7833C9.71671 17.7833 11.75 15.7583 11.75 13.2667C11.75 13.1583 11.7417 13.05 11.7334 12.9417C11.5667 10.7083 9.77504 8.92497 7.57504 8.7583C7.46671 8.7583 7.35004 8.75001 7.22504 8.75001Z" fill="#292D32"/>
<path d="M12.7751 13.5001H12.3668C12.0418 13.5001 11.7668 13.2501 11.7418 12.9251C11.5751 10.7168 9.79176 8.93344 7.58342 8.76677C7.25842 8.74178 7.00842 8.46677 7.00842 8.14177V7.73345C7.00842 4.55012 9.60009 1.9668 12.7834 1.9668C15.9668 1.9668 18.5501 4.55845 18.5501 7.73345C18.5501 10.9085 15.9501 13.5001 12.7751 13.5001ZM8.25009 7.5918C10.6001 8.0168 12.4834 9.89177 12.9084 12.2501C15.3418 12.1751 17.2918 10.1751 17.2918 7.73345C17.2918 5.24178 15.2668 3.2168 12.7751 3.2168C10.3251 3.20846 8.32509 5.15846 8.25009 7.5918Z" fill="#292D32"/>
</svg>
