<svg width="25" height="24" viewBox="0 0 25 24" fill="none" xmlns="http://www.w3.org/2000/svg">
<path d="M11.44 22.65C10.96 22.65 10.49 22.53 10.05 22.29C9.16999 21.8 8.63999 20.91 8.63999 19.91V14.61C8.63999 14.11 8.30999 13.36 7.99999 12.98L4.25999 9.02001C3.62999 8.39001 3.14999 7.31001 3.14999 6.50001V4.20001C3.14999 2.60001 4.35999 1.35001 5.89999 1.35001H19.1C20.62 1.35001 21.85 2.58001 21.85 4.10001V6.30001C21.85 7.35001 21.22 8.54001 20.63 9.13001L16.3 12.96C15.88 13.31 15.55 14.08 15.55 14.7V19C15.55 19.89 14.99 20.92 14.29 21.34L12.91 22.23C12.46 22.51 11.95 22.65 11.44 22.65ZM5.89999 2.85001C5.19999 2.85001 4.64999 3.44001 4.64999 4.20001V6.50001C4.64999 6.87001 4.94999 7.59001 5.32999 7.97001L9.13999 11.98C9.64999 12.61 10.15 13.66 10.15 14.6V19.9C10.15 20.55 10.6 20.87 10.79 20.97C11.21 21.2 11.72 21.2 12.11 20.96L13.5 20.07C13.78 19.9 14.06 19.36 14.06 19V14.7C14.06 13.63 14.58 12.45 15.33 11.82L19.61 8.03001C19.95 7.69001 20.36 6.88001 20.36 6.29001V4.10001C20.36 3.41001 19.8 2.85001 19.11 2.85001H5.89999Z" fill="#0057FF"/>
<path d="M6.50001 10.75C6.36001 10.75 6.23001 10.71 6.10001 10.64C5.75001 10.42 5.64001 9.95 5.86001 9.6L10.79 1.7C11.01 1.35 11.47 1.24 11.82 1.46C12.17 1.68 12.28 2.14 12.06 2.49L7.13001 10.39C6.99001 10.62 6.75001 10.75 6.50001 10.75Z" fill="#0057FF"/>
</svg>
