<svg width="25" height="25" viewBox="0 0 25 25" fill="none" xmlns="http://www.w3.org/2000/svg">
<path d="M13.5 9.75H2.5C2.09 9.75 1.75 9.41 1.75 9C1.75 8.59 2.09 8.25 2.5 8.25H13.5C13.91 8.25 14.25 8.59 14.25 9C14.25 9.41 13.91 9.75 13.5 9.75Z" fill="white"/>
<path d="M8.5 17.75H6.5C6.09 17.75 5.75 17.41 5.75 17C5.75 16.59 6.09 16.25 6.5 16.25H8.5C8.91 16.25 9.25 16.59 9.25 17C9.25 17.41 8.91 17.75 8.5 17.75Z" fill="white"/>
<path d="M15 17.75H11C10.59 17.75 10.25 17.41 10.25 17C10.25 16.59 10.59 16.25 11 16.25H15C15.41 16.25 15.75 16.59 15.75 17C15.75 17.41 15.41 17.75 15 17.75Z" fill="white"/>
<path d="M18.06 21.75H6.94C2.96 21.75 1.75 20.55 1.75 16.61V8.39001C1.75 4.45001 2.96 3.25 6.94 3.25H13.78C14.19 3.25 14.53 3.59 14.53 4C14.53 4.41 14.19 4.75 13.78 4.75H6.94C3.8 4.75 3.25 5.29001 3.25 8.39001V16.61C3.25 19.71 3.8 20.25 6.94 20.25H18.06C21.2 20.25 21.75 19.71 21.75 16.61V11.83C21.75 11.42 22.09 11.08 22.5 11.08C22.91 11.08 23.25 11.42 23.25 11.83V16.61C23.25 20.55 22.04 21.75 18.06 21.75Z" fill="white"/>
<path d="M20.62 7H17.5C17.09 7 16.75 6.66 16.75 6.25V3.75C16.75 3.34 17.09 3 17.5 3H20.63C21.7 3 22.63 3.93 22.63 5C22.62 6.1 21.73 7 20.62 7ZM18.25 5.5H20.63C20.91 5.5 21.13 5.28 21.13 5C21.13 4.78 20.89 4.5 20.63 4.5H18.25V5.5Z" fill="white"/>
<path d="M21.07 9.5H17.5C17.09 9.5 16.75 9.16 16.75 8.75V6.25C16.75 5.84 17.09 5.5 17.5 5.5H21.07C22.27 5.5 23.25 6.4 23.25 7.5C23.25 8.6 22.27 9.5 21.07 9.5ZM18.25 8H21.07C21.44 8 21.75 7.77 21.75 7.5C21.75 7.23 21.44 7 21.07 7H18.25V8Z" fill="white"/>
<path d="M19.2598 10.75C18.8498 10.75 18.5098 10.41 18.5098 10V8.75C18.5098 8.34 18.8498 8 19.2598 8C19.6698 8 20.0098 8.34 20.0098 8.75V10C20.0098 10.42 19.6798 10.75 19.2598 10.75Z" fill="white"/>
<path d="M19.2598 4.5C18.8498 4.5 18.5098 4.16 18.5098 3.75V2.5C18.5098 2.09 18.8498 1.75 19.2598 1.75C19.6698 1.75 20.0098 2.09 20.0098 2.5V3.75C20.0098 4.16 19.6798 4.5 19.2598 4.5Z" fill="white"/>
<path d="M18.69 4.5H16.5C16.09 4.5 15.75 4.16 15.75 3.75C15.75 3.34 16.09 3 16.5 3H18.69C19.1 3 19.44 3.34 19.44 3.75C19.44 4.16 19.1 4.5 18.69 4.5Z" fill="white"/>
<path d="M18.69 9.5H16.5C16.09 9.5 15.75 9.16 15.75 8.75C15.75 8.34 16.09 8 16.5 8H18.69C19.1 8 19.44 8.34 19.44 8.75C19.44 9.16 19.1 9.5 18.69 9.5Z" fill="white"/>
</svg>
