<svg width="20" height="20" viewBox="0 0 20 20" fill="none" xmlns="http://www.w3.org/2000/svg">
<g clip-path="url(#clip0_163_4123)">
<path d="M20 9.58333C20 8.38833 19.2758 7.34 18.2092 6.895C17.5217 2.92667 14.0867 1.77916e-07 10 1.77916e-07C5.91333 -0.000833155 2.47833 2.92583 1.79083 6.89417C0.724167 7.33833 0 8.3875 0 9.5825C0 11.1258 1.205 12.3933 2.72333 12.4925C3.02583 13.1508 3.44333 13.8017 3.94917 14.4067C3.09667 14.805 2.5 15.665 2.5 16.6675V20.0008H4.16667V16.6675C4.16667 16.2083 4.54 15.8342 5 15.8342H5.43917C6.73917 16.8325 8.3225 17.5008 10 17.5008C11.6783 17.5017 13.2617 16.8333 14.5617 15.8342H15C15.46 15.8342 15.8333 16.2083 15.8333 16.6675V20.0008H17.5V16.6675C17.5 15.6658 16.9042 14.8058 16.0517 14.4075C16.5575 13.8033 16.975 13.1525 17.2767 12.4942C18.7942 12.3942 20 11.1275 20 9.58417V9.58333ZM16.1767 10.69L15.9425 11.3533C15.1792 13.5175 12.6083 15.8342 10 15.8342C7.39167 15.8333 4.82083 13.5158 4.0575 11.3517L3.82333 10.6883C3.66083 10.7108 3.0725 10.8317 2.91667 10.8317C2.2275 10.8317 1.66667 10.2708 1.66667 9.58167C1.66667 8.97917 2.09833 8.46333 2.69167 8.35583L3.30583 8.24417L3.37083 7.62333C3.6075 5.38167 4.9325 3.51 6.78667 2.49167C6.71583 2.76167 6.66583 3.04083 6.66583 3.3325C6.66583 5.17083 8.16083 6.66583 9.99917 6.66583C11.8375 6.66583 13.3325 5.17083 13.3325 3.3325H11.6658C11.6658 4.25167 10.9183 4.99917 9.99917 4.99917C9.08 4.99917 8.3325 4.25167 8.3325 3.3325C8.3325 2.41333 9.08 1.66583 9.99917 1.66583C13.4192 1.66583 16.2683 4.2275 16.6275 7.62417L16.6925 8.245L17.3067 8.35667C17.9008 8.46417 18.3317 8.98083 18.3317 9.5825C18.3317 10.2717 17.7708 10.8325 17.0817 10.8325C17.0083 10.8325 16.175 10.6892 16.175 10.6892L16.1767 10.69ZM7.91667 10.8333C7.22667 10.8333 6.66667 10.2733 6.66667 9.58333C6.66667 8.89333 7.22667 8.33333 7.91667 8.33333C8.60667 8.33333 9.16667 8.89333 9.16667 9.58333C9.16667 10.2733 8.60667 10.8333 7.91667 10.8333ZM13.3333 9.58333C13.3333 10.2733 12.7733 10.8333 12.0833 10.8333C11.3933 10.8333 10.8333 10.2733 10.8333 9.58333C10.8333 8.89333 11.3933 8.33333 12.0833 8.33333C12.7733 8.33333 13.3333 8.89333 13.3333 9.58333ZM7.50083 12.5H12.4992C12.0908 13.4783 11.1258 14.1667 10 14.1667C8.87417 14.1667 7.90917 13.4783 7.50083 12.5Z" fill="#605A65"/>
</g>
<defs>
<clipPath id="clip0_163_4123">
<rect width="20" height="20" fill="white"/>
</clipPath>
</defs>
</svg>
