<svg width="13" height="12" viewBox="0 0 13 12" fill="none" xmlns="http://www.w3.org/2000/svg">
<path d="M9.33 11.3349C9.065 11.3349 8.725 11.2499 8.3 10.9999L6.805 10.1149C6.65 10.0249 6.35 10.0249 6.2 10.1149L4.7 10.9999C3.815 11.5249 3.295 11.3149 3.06 11.1449C2.83 10.9749 2.47 10.5399 2.705 9.53991L3.06 8.00491C3.1 7.84491 3.02 7.56991 2.9 7.44991L1.66 6.20991C1.04 5.58991 1.09 5.05991 1.175 4.79991C1.26 4.53991 1.53 4.07991 2.39 3.93491L3.985 3.66991C4.135 3.64491 4.35 3.48491 4.415 3.34991L5.3 1.58491C5.7 0.779912 6.225 0.659912 6.5 0.659912C6.775 0.659912 7.3 0.779912 7.7 1.58491L8.58 3.34491C8.65 3.47991 8.865 3.63991 9.015 3.66491L10.61 3.92991C11.475 4.07491 11.745 4.53491 11.825 4.79491C11.905 5.05491 11.955 5.58491 11.34 6.20491L10.1 7.44991C9.98 7.56991 9.905 7.83991 9.94 8.00491L10.295 9.53991C10.525 10.5399 10.17 10.9749 9.94 11.1449C9.815 11.2349 9.615 11.3349 9.33 11.3349ZM6.5 9.29491C6.745 9.29491 6.99 9.35491 7.185 9.46991L8.68 10.3549C9.115 10.6149 9.39 10.6149 9.495 10.5399C9.6 10.4649 9.675 10.1999 9.565 9.70991L9.21 8.17491C9.115 7.75991 9.27 7.22491 9.57 6.91991L10.81 5.67991C11.055 5.43491 11.165 5.19491 11.115 5.02991C11.06 4.86491 10.83 4.72991 10.49 4.67491L8.895 4.40991C8.51 4.34491 8.09 4.03491 7.915 3.68491L7.035 1.92491C6.875 1.60491 6.675 1.41491 6.5 1.41491C6.325 1.41491 6.125 1.60491 5.97 1.92491L5.085 3.68491C4.91 4.03491 4.49 4.34491 4.105 4.40991L2.515 4.67491C2.175 4.72991 1.945 4.86491 1.89 5.02991C1.835 5.19491 1.95 5.43991 2.195 5.67991L3.435 6.91991C3.735 7.21991 3.89 7.75991 3.795 8.17491L3.44 9.70991C3.325 10.2049 3.405 10.4649 3.51 10.5399C3.615 10.6149 3.885 10.6099 4.325 10.3549L5.82 9.46991C6.01 9.35491 6.255 9.29491 6.5 9.29491Z" fill="#292D32"/>
</svg>
