<svg width="20" height="21" viewBox="0 0 20 21" fill="none" xmlns="http://www.w3.org/2000/svg">
<path d="M12.3249 16.6833C12.2333 16.6833 12.1333 16.6583 12.05 16.6167C11.7416 16.4583 11.6166 16.0833 11.7666 15.775L13.5499 12.2166C13.6583 12.0083 13.8749 11.875 14.1083 11.875C14.3416 11.875 14.5583 12.0083 14.6666 12.225L16.4499 15.7833C16.6083 16.0917 16.4833 16.4666 16.1666 16.625C15.8583 16.7833 15.4833 16.6583 15.3249 16.3417L14.1083 13.9L12.8916 16.3417C12.7749 16.5583 12.5499 16.6833 12.3249 16.6833Z" fill="#292D32"/>
<path d="M15.5667 16.0498H12.6334C12.2918 16.0498 12.0084 15.7665 12.0084 15.4248C12.0084 15.0831 12.2918 14.7998 12.6334 14.7998H15.5667C15.9084 14.7998 16.1917 15.0831 16.1917 15.4248C16.1917 15.7665 15.9167 16.0498 15.5667 16.0498Z" fill="#292D32"/>
<path d="M14.0999 19.4583C11.4249 19.4583 9.24158 17.2833 9.24158 14.6C9.24158 11.9167 11.4166 9.7417 14.0999 9.7417C16.7749 9.7417 18.9582 11.9167 18.9582 14.6C18.9582 17.2833 16.7832 19.4583 14.0999 19.4583ZM14.0999 11C12.1082 11 10.4916 12.6167 10.4916 14.6083C10.4916 16.6 12.1082 18.2167 14.0999 18.2167C16.0832 18.2167 17.7082 16.6 17.7082 14.6083C17.7082 12.6167 16.0916 11 14.0999 11Z" fill="#292D32"/>
<path d="M4.04996 11.0832C3.12496 11.0832 2.39163 10.8249 1.87496 10.3249C1.32496 9.79153 1.04163 8.9832 1.04163 7.94154V4.67489C1.04163 2.64989 2.1583 1.5332 4.1833 1.5332H7.44996C8.49163 1.5332 9.29163 1.8082 9.83329 2.36654C10.3583 2.9082 10.6166 3.69157 10.5916 4.69157V7.94154C10.6166 8.95821 10.3583 9.75822 9.81662 10.2999C9.27496 10.8416 8.47495 11.0915 7.44162 11.0749H4.19162C4.13329 11.0832 4.09163 11.0832 4.04996 11.0832ZM4.1833 2.79154C2.84163 2.79154 2.29163 3.34156 2.29163 4.68323V7.94988C2.29163 8.64155 2.44162 9.14152 2.74162 9.43319C3.03329 9.71652 3.49996 9.84155 4.1583 9.83322H7.44162C8.14162 9.84989 8.62496 9.70822 8.91662 9.41655C9.20829 9.12489 9.34163 8.63322 9.32496 7.95822V4.67489C9.34163 4.00822 9.2083 3.53319 8.92496 3.24153C8.6333 2.94153 8.13329 2.79154 7.44162 2.79154H4.1833Z" fill="#292D32"/>
<path d="M7.49991 6H4.11658C3.77491 6 3.49158 5.71667 3.49158 5.375C3.49158 5.03333 3.77491 4.75 4.11658 4.75H7.49991C7.84158 4.75 8.12491 5.03333 8.12491 5.375C8.12491 5.71667 7.84991 6 7.49991 6Z" fill="#292D32"/>
<path d="M5.81665 5.99977C5.47498 5.99977 5.19165 5.71643 5.19165 5.37477V4.80811C5.19165 4.46644 5.47498 4.18311 5.81665 4.18311C6.15832 4.18311 6.44165 4.46644 6.44165 4.80811V5.37477C6.44165 5.71643 6.15832 5.99977 5.81665 5.99977Z" fill="#292D32"/>
<path d="M4.11658 8.63335C3.77491 8.63335 3.49158 8.35002 3.49158 8.00835C3.49158 7.66668 3.77491 7.38335 4.11658 7.38335C5.17491 7.38335 6.03325 6.48337 6.03325 5.3667C6.03325 5.02503 6.31658 4.7417 6.65825 4.7417C6.99991 4.7417 7.28325 5.02503 7.28325 5.3667C7.28325 7.1667 5.86658 8.63335 4.11658 8.63335Z" fill="#292D32"/>
<path d="M7.50832 8.63339C6.73332 8.63339 5.99166 8.24173 5.46666 7.55007C5.25832 7.27507 5.31666 6.88336 5.59166 6.67502C5.86666 6.46669 6.25832 6.52505 6.46665 6.80005C6.74999 7.18338 7.12499 7.39173 7.50832 7.39173C7.84999 7.39173 8.13332 7.67506 8.13332 8.01673C8.13332 8.3584 7.84999 8.63339 7.50832 8.63339Z" fill="#292D32"/>
<path d="M7.49996 19.4583C3.94163 19.4583 1.04163 16.5583 1.04163 13C1.04163 12.6583 1.32496 12.375 1.66663 12.375C2.00829 12.375 2.29163 12.6583 2.29163 13C2.29163 15.4667 4.00829 17.5334 6.31663 18.075L6.09162 17.7C5.91662 17.4 6.0083 17.0167 6.3083 16.8417C6.59997 16.6667 6.99163 16.7583 7.16663 17.0583L8.04162 18.5167C8.15829 18.7083 8.1583 18.95 8.04996 19.1417C7.9333 19.3333 7.72496 19.4583 7.49996 19.4583Z" fill="#292D32"/>
<path d="M18.3333 8.62484C17.9917 8.62484 17.7083 8.3415 17.7083 7.99984C17.7083 5.53317 15.9917 3.46648 13.6833 2.92481L13.9083 3.29983C14.0833 3.59983 13.9916 3.98318 13.6916 4.15818C13.4 4.33318 13.0083 4.24151 12.8333 3.94151L11.9583 2.48317C11.8417 2.29151 11.8417 2.04984 11.95 1.85817C12.0583 1.65817 12.2667 1.5415 12.4917 1.5415C16.05 1.5415 18.95 4.4415 18.95 7.99984C18.9583 8.3415 18.675 8.62484 18.3333 8.62484Z" fill="#292D32"/>
</svg>
